<?xml version="1.0" encoding="utf-8"?>
<!-- Generator: Adobe Illustrator 25.0.0, SVG Export Plug-In . SVG Version: 6.00 Build 0)  -->
<svg version="1.1" id="Capa_1" xmlns="http://www.w3.org/2000/svg" xmlns:xlink="http://www.w3.org/1999/xlink" x="0px" y="0px"
	 viewBox="0 0 248.6 49.4" style="enable-background:new 0 0 248.6 49.4;" xml:space="preserve">
<style type="text/css">
	.st0{fill:#F5F5F2;}
</style>
<g>
	<path class="st0" d="M35.9,0.8H4.2C1.8,0.8,0,2.7,0,5v39.5c0,2.2,1.8,4.2,4.2,4.2h31.7c2.3,0,4.2-1.9,4.2-4.2V5
		C40.1,2.7,38.2,0.8,35.9,0.8 M29.4,40.7h-2.3c-0.5,0-1-0.4-1-0.9c0,0-0.6-12.4-0.6-13.3c-0.1,1.2-3.8,13.3-3.8,13.3
		c-0.1,0.5-0.6,0.8-1.1,0.8h-1.2c-0.5,0-1-0.3-1.1-0.8c0,0-3.6-12.1-3.8-13.3c0,0.6-0.6,13.3-0.6,13.3c0,0.5-0.5,0.9-1,0.9h-2.3
		c-0.5,0-0.8-0.4-0.8-0.9l1.7-19.3c0-0.5,0.5-0.9,1-0.9h2.7c0.5,0,1,0.3,1.1,0.8c0,0,3.6,12.6,3.7,13.7c0.1-1.1,3.7-13.7,3.7-13.7
		c0.1-0.5,0.6-0.8,1.1-0.8h2.7c0.5,0,1,0.4,1,0.9l1.7,19.3C30.2,40.3,29.9,40.7,29.4,40.7 M30.8,15.2c-0.5,0.9-1.8,1.2-2.8,0.6
		l-5.8-3.4c0,0,0,0,0,0l-2.1-1.2L15.2,14h0L12,15.9c-1,0.6-2.2,0.3-2.8-0.6c-0.5-0.9-0.2-2.1,0.8-2.7l5.8-3.3L19,7.4
		c0,0,0.1-0.1,0.1-0.1c0.1,0,0.1-0.1,0.2-0.1c0,0,0.1,0,0.1-0.1c0.1,0,0.2-0.1,0.3-0.1c0,0,0.1,0,0.1,0c0.1,0,0.2,0,0.3,0
		c0,0,0.1,0,0.1,0c0.1,0,0.2,0,0.2,0c0,0,0.1,0,0.1,0c0.1,0,0.1,0.1,0.2,0.1c0,0,0.1,0,0.1,0.1c0,0,0.1,0,0.1,0.1l5.7,3.3
		c0,0,0,0,0,0l3.2,1.9C31,13.1,31.4,14.3,30.8,15.2"/>
	<path class="st0" d="M52.2,21.4h-1c-0.4,0-0.7-0.3-0.7-0.7V7.9c0-0.4,0.3-0.7,0.7-0.7h1c0.4,0,0.7,0.3,0.7,0.7v12.9
		C52.9,21.1,52.6,21.4,52.2,21.4"/>
	<path class="st0" d="M62.1,21.4c-0.6,0-0.8-0.2-0.8-0.9v-5.9c0-0.9-0.4-1.6-1.4-1.6s-1.6,0.7-1.6,1.9v5.5c0,0.6-0.3,0.9-0.8,0.9
		h-0.6c-0.6,0-0.9-0.2-0.9-0.9V12c0-0.6,0.2-0.8,0.9-0.8h0.1c0.5,0,0.8,0.2,1,0.7l0,0.1c0.6-0.7,1.5-1,2.5-1c2.2,0,3.2,1.1,3.2,3.4
		v6.1c0,0.6-0.2,0.9-0.8,0.9L62.1,21.4L62.1,21.4z"/>
	<path class="st0" d="M70.9,20.6c0,0.6-0.3,0.8-0.8,0.8h-0.7c-1.9,0-2.7-0.8-2.7-2.7v-5.6h-0.6c-0.6,0-0.8-0.2-0.8-0.9v-0.2
		c0-0.6,0.3-0.9,0.8-0.9h0.6l0.3-1.6c0.1-0.6,0.4-0.8,1-0.8h0.1c0.6,0,0.8,0.2,0.8,0.8v1.6h1c0.6,0,0.8,0.3,0.8,0.9v0.2
		c0,0.6-0.2,0.9-0.8,0.9h-1v5.5c0,0.6,0.2,0.7,0.6,0.7h0.4c0.6,0,0.8,0.2,0.8,0.8V20.6z"/>
	<path class="st0" d="M78.1,15.2c0-1.3-0.2-2.2-1.5-2.2c-1.1,0-1.7,0.5-1.7,2.2H78.1z M79.7,17.1h-4.8c0.1,1.4,0.6,2.3,2.2,2.3
		c0.8,0,1.2-0.2,1.4-0.3c0.2-0.1,0.4-0.2,0.6-0.2s0.4,0.1,0.6,0.3l0.3,0.3c0.2,0.2,0.3,0.4,0.3,0.6c0,0.2-0.1,0.4-0.3,0.6
		c-0.3,0.2-1.3,0.9-3,0.9c-3.3,0-4.6-1.7-4.6-5.3c0-3.2,1-5.2,4.1-5.2c2.8,0,3.9,1.3,3.9,5.3C80.5,16.9,80.3,17.1,79.7,17.1"/>
	<path class="st0" d="M88.8,21.4c-0.6,0-0.8-0.2-0.8-0.9v-5.9c0-0.9-0.4-1.6-1.4-1.6c-1,0-1.6,0.7-1.6,1.9v5.5
		c0,0.6-0.3,0.9-0.8,0.9h-0.6c-0.6,0-0.9-0.2-0.9-0.9V12c0-0.6,0.2-0.8,0.9-0.8h0.1c0.5,0,0.8,0.2,1,0.7l0,0.1c0.6-0.7,1.4-1,2.4-1
		c2.2,0,3.2,1.1,3.2,3.4v6.1c0,0.6-0.2,0.9-0.8,0.9L88.8,21.4L88.8,21.4z"/>
	<path class="st0" d="M96.4,12.9c-1.5,0-1.6,1.7-1.6,3.3c0,2.4,0.5,3.2,1.6,3.2c1.1,0,1.7-1,1.7-3.2C98.2,14,97.5,12.9,96.4,12.9
		 M98.1,7.2c0-0.6,0.3-0.9,0.8-0.9h0.6c0.6,0,0.8,0.2,0.8,0.9v13.3c0,0.6-0.3,0.8-0.8,0.8h-0.1c-0.6,0-0.9-0.2-1-0.7
		c-0.1-0.2,0,0-0.1-0.1c-0.6,0.7-1.4,1-2.5,1c-2.2,0-3.6-1.5-3.6-5.3c0-2.7,0.7-5.3,3.6-5.3c0.9,0,1.6,0.3,2.1,0.8
		C98.1,11.6,98.1,7.2,98.1,7.2z"/>
	<path class="st0" d="M108.3,15.2c0-1.3-0.2-2.2-1.5-2.2c-1.1,0-1.7,0.5-1.7,2.2H108.3z M109.9,17.1h-4.8c0.1,1.4,0.6,2.3,2.2,2.3
		c0.8,0,1.2-0.2,1.4-0.3c0.2-0.1,0.4-0.2,0.6-0.2s0.4,0.1,0.6,0.3l0.3,0.3c0.2,0.2,0.3,0.4,0.3,0.6c0,0.2-0.1,0.4-0.3,0.6
		c-0.3,0.2-1.3,0.9-3,0.9c-3.3,0-4.6-1.7-4.6-5.3c0-3.2,1-5.2,4.1-5.2c2.8,0,3.9,1.3,3.9,5.3C110.7,16.9,110.5,17.1,109.9,17.1"/>
	<path class="st0" d="M119.1,21.4c-0.6,0-0.8-0.2-0.8-0.9v-5.9c0-0.9-0.4-1.6-1.4-1.6s-1.6,0.7-1.6,1.9v5.5c0,0.6-0.3,0.9-0.8,0.9
		h-0.6c-0.6,0-0.9-0.2-0.9-0.9V12c0-0.6,0.2-0.8,0.9-0.8h0.1c0.5,0,0.8,0.2,1.1,0.7l0,0.1c0.6-0.7,1.4-1,2.4-1
		c2.2,0,3.2,1.1,3.2,3.4v6.1c0,0.6-0.2,0.9-0.8,0.9L119.1,21.4L119.1,21.4z"/>
	<path class="st0" d="M129.3,11.7c0.2,0.2,0.4,0.4,0.4,0.6s-0.1,0.4-0.3,0.6l-0.3,0.2c-0.2,0.2-0.4,0.3-0.6,0.3
		c-0.2,0-0.3-0.1-0.6-0.2c-0.2-0.1-0.5-0.2-1-0.2c-1.4,0-1.9,1.1-1.9,3.1c0,2.1,0.5,3.2,2.1,3.2c0.4,0,0.7-0.1,1-0.2
		c0.2-0.1,0.4-0.2,0.6-0.2c0.2,0,0.4,0.1,0.6,0.3l0.3,0.2c0.2,0.2,0.3,0.4,0.3,0.6c0,0.2-0.1,0.4-0.3,0.6c-0.3,0.2-1.1,0.8-2.6,0.8
		c-3,0-4.4-1.8-4.4-5.4c0-3,1.3-5.1,4.4-5.1C128.2,11,128.9,11.4,129.3,11.7"/>
	<path class="st0" d="M131.9,11.9c0-0.6,0.3-0.9,0.9-0.9h0.6c0.6,0,0.9,0.2,0.9,0.9v8.7c0,0.6-0.2,0.9-0.9,0.9h-0.6
		c-0.6,0-0.9-0.2-0.9-0.9V11.9z M131.8,7.2c0-0.6,0.2-0.9,0.9-0.9h0.8c0.6,0,0.9,0.2,0.9,0.9v1.2c0,0.6-0.2,0.9-0.9,0.9h-0.8
		c-0.6,0-0.9-0.2-0.9-0.9V7.2z"/>
	<path class="st0" d="M141.8,17.1h-1.1c-1.1,0-2,0.2-2,1.2c0,0.8,0.6,1.2,1.2,1.2c1.2,0,1.9-0.9,1.9-1.5L141.8,17.1L141.8,17.1z
		 M142,20.5c-0.7,0.8-1.6,1-2.6,1c-1.8,0-3.1-1.2-3.1-3.2c0-2.1,1.7-3.1,3.9-3.1h1.5c0.1,0,0.1,0,0.1-0.1v-0.6
		c0-1.2-0.5-1.5-1.9-1.5c-0.8,0-1.4,0.2-1.6,0.3c-0.2,0.1-0.3,0.1-0.5,0.1c-0.3,0-0.5-0.2-0.7-0.5l-0.1-0.3v0
		c-0.1-0.2-0.2-0.4-0.2-0.5c0-0.3,0.1-0.5,0.5-0.7c0.6-0.2,1.5-0.6,2.8-0.6c2.7,0,4,0.7,4,3.5v6c0,0.6-0.3,0.9-0.9,0.9h-0.1
		c-0.5,0-0.9-0.2-1-0.7L142,20.5z"/>
	<path class="st0" d="M70.2,32.3c-1.5,0-1.9,1-1.9,3.2c0,2.3,0.4,3.2,1.9,3.2s1.9-1,1.9-3.2C72.2,33.3,71.7,32.3,70.2,32.3
		 M70.2,40.8c-3.2,0-4.3-2-4.3-5.3c0-3.2,1.1-5.2,4.3-5.2c3.2,0,4.3,2,4.3,5.2C74.5,38.8,73.4,40.8,70.2,40.8"/>
	<path class="st0" d="M82.9,40.7c-0.6,0-0.8-0.2-0.8-0.9V34c0-1-0.4-1.6-1.4-1.6c-1,0-1.6,0.7-1.6,1.9v5.5c0,0.6-0.2,0.9-0.8,0.9
		h-0.6c-0.6,0-0.9-0.2-0.9-0.9v-8.6c0-0.6,0.2-0.8,0.9-0.8h0.1c0.5,0,0.8,0.2,1,0.7l0,0.1c0.6-0.7,1.4-1,2.4-1
		c2.2,0,3.2,1.1,3.2,3.4v6.1c0,0.6-0.3,0.9-0.8,0.9L82.9,40.7L82.9,40.7z"/>
	<path class="st0" d="M91.4,39.9c0,0.6-0.3,0.8-0.8,0.8h-0.7c-1.9,0-2.7-0.8-2.7-2.7v-5.5h-0.6c-0.6,0-0.8-0.2-0.8-0.9v-0.2
		c0-0.6,0.3-0.9,0.8-0.9h0.6l0.3-1.6c0.1-0.5,0.4-0.8,1-0.8h0.1c0.6,0,0.8,0.2,0.8,0.8v1.6h1c0.6,0,0.8,0.2,0.8,0.9v0.2
		c0,0.6-0.2,0.9-0.8,0.9h-1V38c0,0.6,0.2,0.7,0.6,0.7h0.4c0.6,0,0.8,0.2,0.8,0.8V39.9z"/>
	<path class="st0" d="M98.5,34.5c0-1.3-0.2-2.2-1.5-2.2c-1.1,0-1.7,0.5-1.7,2.2H98.5z M100.1,36.4h-4.8c0.1,1.3,0.6,2.3,2.2,2.3
		c0.8,0,1.2-0.2,1.4-0.3c0.2-0.1,0.4-0.2,0.6-0.2s0.4,0.1,0.6,0.3l0.3,0.3c0.2,0.2,0.3,0.4,0.3,0.6c0,0.2-0.1,0.4-0.3,0.6
		c-0.3,0.2-1.3,0.9-3,0.9c-3.3,0-4.6-1.7-4.6-5.3c0-3.2,1-5.2,4.1-5.2c2.8,0,4,1.3,4,5.3C100.9,36.2,100.7,36.4,100.1,36.4"/>
	<path class="st0" d="M106.3,38.7l0.2-0.1l1.8-7.4c0.2-0.5,0.4-0.8,1-0.8h0.8c0.5,0,0.7,0.2,0.7,0.6c0,0.1,0,0.2-0.1,0.3h0l-2.6,8.6
		v0c-0.1,0.5-0.4,0.8-1,0.8h-1.7c-0.6,0-0.9-0.2-1-0.8v0l-2.6-8.6c0-0.1,0-0.2,0-0.3c0-0.4,0.2-0.6,0.7-0.6h0.8c0.6,0,0.8,0.2,1,0.8
		L106.3,38.7z"/>
	<path class="st0" d="M112.4,31.2c0-0.6,0.3-0.8,0.8-0.8h0.6c0.6,0,0.8,0.2,0.8,0.8v8.7c0,0.6-0.3,0.8-0.8,0.8h-0.6
		c-0.6,0-0.8-0.2-0.8-0.8V31.2z M112.3,26.5c0-0.6,0.3-0.9,0.8-0.9h0.8c0.6,0,0.8,0.2,0.8,0.9v1.2c0,0.6-0.2,0.9-0.8,0.9h-0.8
		c-0.6,0-0.8-0.2-0.8-0.9V26.5z"/>
	<path class="st0" d="M121,32.2c-1.5,0-1.6,1.7-1.6,3.3c0,2.4,0.5,3.2,1.6,3.2c1.1,0,1.7-1,1.7-3.2C122.7,33.3,122.1,32.2,121,32.2
		 M122.7,26.5c0-0.6,0.3-0.9,0.8-0.9h0.6c0.6,0,0.8,0.2,0.8,0.9v13.3c0,0.6-0.3,0.8-0.8,0.8h-0.1c-0.6,0-0.9-0.2-1-0.7
		c-0.1-0.2,0,0-0.1-0.2c-0.6,0.7-1.4,1-2.5,1c-2.2,0-3.6-1.5-3.6-5.3c0-2.7,0.7-5.3,3.6-5.3c0.9,0,1.6,0.3,2.1,0.8
		C122.7,31,122.7,26.5,122.7,26.5z"/>
	<path class="st0" d="M132.6,34.5c0-1.3-0.2-2.2-1.5-2.2c-1.1,0-1.7,0.5-1.7,2.2H132.6z M134.2,36.4h-4.8c0.1,1.3,0.6,2.3,2.2,2.3
		c0.7,0,1.2-0.2,1.4-0.3c0.2-0.1,0.4-0.2,0.6-0.2s0.4,0.1,0.6,0.3l0.3,0.3c0.2,0.2,0.3,0.4,0.3,0.6c0,0.2-0.1,0.4-0.3,0.6
		c-0.3,0.2-1.3,0.9-3,0.9c-3.3,0-4.6-1.7-4.6-5.3c0-3.2,1-5.2,4.1-5.2c2.8,0,3.9,1.3,3.9,5.3C135,36.2,134.8,36.4,134.2,36.4"/>
	<path class="st0" d="M141,32.3c-1.5,0-1.9,1-1.9,3.2c0,2.3,0.4,3.2,1.9,3.2s1.9-1,1.9-3.2C142.9,33.3,142.5,32.3,141,32.3
		 M141,40.8c-3.2,0-4.3-2-4.3-5.3c0-3.2,1.1-5.2,4.3-5.2c3.2,0,4.3,2,4.3,5.2C145.3,38.8,144.2,40.8,141,40.8"/>
	<path class="st0" d="M64.3,39.8L64.3,39.8c0,0.6-0.2,0.9-0.8,0.9h-0.8c-0.6,0-0.8-0.2-0.9-0.8l-0.3-9L58.7,40
		c-0.2,0.5-0.5,0.8-1,0.8h-0.5c-0.5,0-0.9-0.2-1-0.8l-2.7-9l-0.4,9c0,0.6-0.3,0.8-0.9,0.8h-0.8c-0.6,0-0.8-0.2-0.8-0.8v-0.1
		l0.9-12.5c0-0.6,0.3-0.8,0.9-0.8h1.2c0.5,0,0.8,0.2,1,0.8l3,9.9c1-3.3,1.9-6.5,2.9-9.9c0.2-0.5,0.5-0.8,1-0.8h1.2
		c0.6,0,0.9,0.2,0.9,0.8L64.3,39.8z"/>
	<path class="st0" d="M221.8,26.7h-15.1c-0.4,0-0.7,0.3-0.7,0.7v13.8c0,0.4,0.3,0.7,0.7,0.7h15.1c0.4,0,0.7-0.3,0.7-0.7V27.3
		C222.5,27,222.2,26.7,221.8,26.7 M219.2,37.8c0,0.4-0.3,0.7-0.7,0.7H210c-0.4,0-0.7-0.3-0.7-0.7v-7.2c0-0.4,0.3-0.7,0.7-0.7h8.5
		c0.4,0,0.7,0.3,0.7,0.7V37.8z"/>
	<path class="st0" d="M224.3,0h-20.2c-0.8,0-1.4,0.6-1.4,1.4v20.2c0,0.8,0.6,1.4,1.4,1.4h20.2c0.8,0,1.4-0.6,1.4-1.4V1.4
		C225.7,0.6,225.1,0,224.3,0 M221.8,4.7L216,18.5c-0.1,0.2-0.4,0.4-0.6,0.4h-2.3c-0.3,0-0.5-0.2-0.6-0.4l-5.8-13.8
		c-0.2-0.4,0.1-1,0.6-1h2c0.3,0,0.5,0.2,0.6,0.4l3.9,9.4c0.2,0.4,0.7,0.4,0.9,0l3.9-9.4c0.1-0.2,0.4-0.4,0.6-0.4h2
		C221.7,3.8,222,4.3,221.8,4.7"/>
	<path class="st0" d="M241.9,3.8h-12.4c-0.4,0-0.7,0.3-0.7,0.7v13.8c0,0.4,0.3,0.7,0.7,0.7H242c0.3,0,0.5-0.2,0.6-0.4l2.6-5.9
		c0.1-0.2,0.1-0.3,0-0.5l-2.6-7.8C242.5,4,242.2,3.8,241.9,3.8 M239.6,15.7h-6.9c-0.4,0-0.7-0.3-0.7-0.7V7.7c0-0.4,0.3-0.7,0.7-0.7
		h6.8c0.3,0,0.6,0.2,0.6,0.5l1.6,4.5c0.1,0.2,0.1,0.4,0,0.5l-1.5,2.8C240.1,15.5,239.9,15.7,239.6,15.7"/>
	<path class="st0" d="M195.3,4.1l-3.6,5c-0.2,0.2-0.6,0.2-0.7,0l-3.6-5c-0.1-0.2-0.3-0.3-0.6-0.3h-3c-0.4,0-0.7,0.3-0.7,0.7v13.8
		c0,0.4,0.3,0.7,0.7,0.7h1.9c0.4,0,0.7-0.3,0.7-0.7V8.7c0-0.2,0.3-0.3,0.4-0.1l3.4,4.9c0.1,0.2,0.3,0.3,0.6,0.3h1.3
		c0.2,0,0.4-0.1,0.6-0.3l3.4-4.9c0.1-0.2,0.4-0.1,0.4,0.1v9.5c0,0.4,0.3,0.7,0.7,0.7h1.9c0.4,0,0.7-0.3,0.7-0.7V4.4
		c0-0.4-0.3-0.7-0.7-0.7h-3C195.6,3.8,195.4,3.9,195.3,4.1"/>
	<path class="st0" d="M242,30.6v7.2c0,0.4-0.3,0.7-0.7,0.7h-8.5c-0.4,0-0.7-0.3-0.7-0.7v-7.2c0-0.4,0.3-0.7,0.7-0.7h8.5
		C241.7,30,242,30.3,242,30.6"/>
	<path class="st0" d="M247.2,22.8H227c-0.8,0-1.4,0.6-1.4,1.4v20.1c0,0.8,0.6,1.4,1.4,1.4h20.3c0.8,0,1.4-0.6,1.4-1.4V24.2
		C248.6,23.4,248,22.8,247.2,22.8 M245.3,41.1c0,0.4-0.3,0.7-0.7,0.7h-15.1c-0.4,0-0.7-0.3-0.7-0.7V27.3c0-0.4,0.3-0.7,0.7-0.7h15.1
		c0.4,0,0.7,0.3,0.7,0.7V41.1z"/>
	<path class="st0" d="M201.5,22.9h-20.3c-0.8,0-1.4,0.6-1.4,1.4v20.1c0,0.8,0.6,1.4,1.4,1.4h20.3c0.8,0,1.4-0.6,1.4-1.4V24.2
		C202.9,23.5,202.2,22.9,201.5,22.9 M198.9,29.4c0,0.2-0.1,0.4-0.2,0.5l-2.2,2.2c-0.2,0.2-0.1,0.4,0.2,0.4h1.5
		c0.4,0,0.7,0.3,0.7,0.7v7.9c0,0.4-0.3,0.7-0.7,0.7h-13.7c-0.4,0-0.7-0.3-0.7-0.7v-1.8c0-0.4,0.3-0.7,0.7-0.7H195
		c0.4,0,0.7-0.3,0.7-0.7v-1.4c0-0.4-0.3-0.7-0.7-0.7h-8.2c-0.4,0-0.7-0.3-0.7-0.7v-1.9c0-0.4,0.3-0.7,0.7-0.7h4.9
		c0.1,0,0.2,0,0.3-0.1l1.7-1.7c0.3-0.3,0.1-0.8-0.3-0.8h-9c-0.4,0-0.7-0.3-0.7-0.7v-1.9c0-0.4,0.3-0.7,0.7-0.7h13.8
		c0.4,0,0.7,0.3,0.7,0.7V29.4z"/>
	<rect x="160.2" class="st0" width="1" height="49.4"/>
</g>
</svg>
