<?xml version="1.0" encoding="utf-8"?>
<!-- Generator: Adobe Illustrator 25.0.0, SVG Export Plug-In . SVG Version: 6.00 Build 0)  -->
<svg version="1.1" id="Capa_1" xmlns="http://www.w3.org/2000/svg" xmlns:xlink="http://www.w3.org/1999/xlink" x="0px" y="0px"
	 viewBox="0 0 176.5 48.5" style="enable-background:new 0 0 176.5 48.5;" xml:space="preserve">
<style type="text/css">
	.st0{fill:#F5F5F2;}
</style>
<g>
	<path class="st0" d="M39.8,38.5c0,0.9-0.5,1.5-1.3,1.5c-0.6,0-0.8-0.5-0.8-1v-3.3H36v3.6c0,1.5,0.7,2.3,2,2.3
		c0.9,0,1.6-0.7,1.9-1.2v1h1.6v-5.7h-1.7C39.8,35.7,39.8,38.5,39.8,38.5z"/>
	<polygon class="st0" points="0,0 0,11 2.2,11 2.2,6.6 5.3,6.6 5.3,4.7 2.2,4.7 2.2,2.2 5.4,2.2 5.4,0 	"/>
	<polygon class="st0" points="8.3,0 8.3,2.2 46.2,2.2 46.2,46.3 2.2,46.3 2.2,13.8 0,13.8 0,48.5 48.5,48.5 48.5,48.5 48.5,48.5 
		48.5,0 	"/>
	<path class="st0" d="M10,40c-0.8,0-1.4-0.7-1.4-1.5s0.6-1.5,1.4-1.5s1.4,0.7,1.4,1.5C11.4,39.4,10.8,40,10,40 M13.1,33.1h-1.7v2.8
		c0,0.3,0,0.5,0,0.5l0,0c-0.3-0.5-1.1-0.7-1.8-0.7c-1.4,0-2.6,1-2.6,2.9c0,1.9,1.1,3,2.6,3c1.3,0,1.7-0.7,1.9-1.2h0c0,0,0,0.4,0,0.6
		l0,0.5h1.6L13.1,33.1z"/>
	<path class="st0" d="M38.4,12c-0.2,0-0.9-0.1-0.8-0.9c0-0.6,0.8-1,2.2-0.7C39.8,11.3,39.3,12,38.4,12 M38.8,7c-1,0-1.7,0.2-2.1,0.4
		v1.5c0.4-0.2,1.1-0.5,1.8-0.5c0.9,0,1.2,0.3,1.2,1.1v0c-1.8-0.5-3.5,0.3-3.5,1.7c0,1.2,0.9,1.7,1.8,1.7c1.1,0,1.7-0.6,1.9-1.2v1.1
		h1.6V9.3C41.5,7.9,40.5,7,38.8,7"/>
	<polygon class="st0" points="57.8,11.3 57.8,12.9 60,12.9 60,14 57.8,14 57.8,16.6 56.4,16.6 56.4,10.1 60.4,10.1 60.4,11.3 	"/>
	<path class="st0" d="M63.9,14.7c-1-0.2-1.4,0.1-1.4,0.6c0,0.3,0.2,0.5,0.5,0.5C63.5,15.7,63.9,15.2,63.9,14.7 M61.5,12.3
		c0.2-0.1,0.9-0.3,1.7-0.3c1.4,0,2.1,0.7,2.1,1.8v2.8h-1.2l0-0.4c0-0.2,0-0.3,0-0.3h0c-0.1,0.3-0.6,0.8-1.4,0.8
		c-0.8,0-1.4-0.5-1.4-1.4c0-1.1,1.1-1.6,2.7-1.4v-0.1c0-0.5-0.4-0.7-1-0.7c-0.6,0-1.1,0.2-1.4,0.4L61.5,12.3L61.5,12.3z"/>
	<path class="st0" d="M69.2,15.6c0.5,0,1-0.2,1.2-0.4v1.2c-0.2,0.1-0.7,0.3-1.4,0.3c-1.4,0-2.4-1-2.4-2.4c0-1.4,0.9-2.4,2.4-2.4
		c0.7,0,1.2,0.2,1.3,0.3v1.2c-0.2-0.2-0.7-0.4-1.2-0.4c-0.7,0-1.2,0.5-1.2,1.2C67.9,15.1,68.4,15.6,69.2,15.6"/>
	<path class="st0" d="M74.9,16.6l0-0.5c0-0.2,0-0.3,0-0.3h0c-0.2,0.4-0.8,0.9-1.5,0.9c-1,0-1.6-0.6-1.6-1.8v-2.8h1.3v2.6
		c0,0.4,0.1,0.8,0.6,0.8c0.6,0,1-0.5,1-1.2v-2.2h1.3v4.5C76.1,16.6,74.9,16.6,74.9,16.6z"/>
	<path class="st0" d="M77.9,10.1h1.3V15c0,0.4,0.2,0.6,0.4,0.6c0.2,0,0.4-0.1,0.4-0.1v1.1c-0.1,0.1-0.4,0.1-0.8,0.1
		c-0.8,0-1.4-0.4-1.4-1.4L77.9,10.1L77.9,10.1z"/>
	<path class="st0" d="M81.4,12.1v-1.4h1.3v1.4h1.2v1.1h-1.2V15c0,0.5,0.3,0.6,0.6,0.6c0.3,0,0.6-0.1,0.8-0.2v1.1
		c-0.2,0.1-0.6,0.2-1.1,0.2c-0.7,0-1.4-0.3-1.5-1.3c0-0.1,0-0.3,0-0.5v-1.8h-0.6v-1.1L81.4,12.1L81.4,12.1z"/>
	<path class="st0" d="M87.9,14.7c-1-0.2-1.4,0.1-1.4,0.6c0,0.3,0.2,0.5,0.5,0.5C87.5,15.7,87.9,15.2,87.9,14.7 M85.5,12.3
		c0.2-0.1,0.8-0.3,1.6-0.3c1.4,0,2.1,0.7,2.1,1.8v2.8H88l0-0.4c0-0.2,0-0.3,0-0.3h0c-0.1,0.3-0.6,0.8-1.4,0.8
		c-0.8,0-1.4-0.5-1.4-1.4c0-1.1,1.1-1.6,2.7-1.4v-0.1c0-0.5-0.4-0.7-1-0.7c-0.6,0-1.1,0.2-1.4,0.4L85.5,12.3L85.5,12.3z"/>
	<path class="st0" d="M91.8,14.4c0,0.7,0.4,1.2,1.1,1.2c0.5,0,1.1-0.4,1.1-1.2s-0.5-1.2-1.1-1.2C92.3,13.1,91.8,13.6,91.8,14.4
		 M95.4,16.6h-1.2l0-0.4c0-0.2,0-0.3,0-0.3h0c-0.2,0.4-0.8,0.8-1.5,0.8c-1.2,0-2.1-0.9-2.1-2.4c0-1.5,0.9-2.4,2.1-2.4
		c0.7,0,1.2,0.3,1.4,0.7h0c0,0,0-0.1,0-0.4v-2.1h1.3V16.6z"/>
	<path class="st0" d="M101,14.4c0,0.7,0.4,1.2,1.1,1.2c0.5,0,1.1-0.4,1.1-1.2s-0.5-1.2-1.1-1.2C101.4,13.1,101,13.6,101,14.4
		 M104.5,16.6h-1.2l0-0.4c0-0.2,0-0.3,0-0.3h0c-0.2,0.4-0.8,0.8-1.5,0.8c-1.2,0-2.1-0.9-2.1-2.4c0-1.5,0.9-2.4,2.1-2.4
		c0.7,0,1.2,0.3,1.4,0.7h0c0,0,0-0.1,0-0.4v-2.1h1.3V16.6z"/>
	<path class="st0" d="M108.2,13.1c-0.5,0-0.8,0.4-0.9,0.9h1.7C109.1,13.5,108.8,13.1,108.2,13.1 M110.3,14.1c0,0.2,0,0.5,0,0.6h-2.9
		c0.1,0.6,0.5,1,1.2,1c0.6,0,1.3-0.2,1.6-0.3v1.1c-0.3,0.1-0.9,0.3-1.7,0.3c-1.5,0-2.5-1-2.5-2.4c0-1.4,1-2.4,2.3-2.4
		C109.6,12,110.3,13,110.3,14.1"/>
	<path class="st0" d="M117.9,14.5c-0.3-0.7-0.6-1.4-0.8-1.9c-0.2,0.4-0.5,1.3-0.8,1.9H117.9z M117.1,10.1L117.1,10.1l3.2,6.6h-1.4
		l-0.5-1.1h-2.4l-0.5,1.1H114L117.1,10.1z"/>
	<path class="st0" d="M121.4,12.1h1.2l0,0.4c0,0.1,0,0.2,0,0.3c0.3-0.5,0.8-0.9,1.3-0.9c0.2,0,0.3,0,0.3,0v1.3c0,0-0.1-0.1-0.3-0.1
		c-0.7,0-1.2,0.6-1.2,1.4v1.9h-1.3C121.4,16.6,121.4,12.1,121.4,12.1z"/>
	<path class="st0" d="M128.7,14.4c0-0.8-0.5-1.2-1.1-1.2c-0.6,0-1.1,0.5-1.1,1.2c0,0.8,0.4,1.2,1.1,1.2
		C128.1,15.6,128.7,15.2,128.7,14.4 M130.1,18.6h-1.3v-2.2c0-0.2,0-0.4,0-0.4h0c-0.2,0.4-0.8,0.7-1.4,0.7c-1.1,0-2.1-0.9-2.1-2.4
		c0-1.5,0.9-2.4,2.1-2.4c0.7,0,1.2,0.4,1.5,0.8h0c0,0,0-0.1,0-0.3l0-0.4h1.2V18.6z"/>
	<path class="st0" d="M134.9,16.6l0-0.5c0-0.2,0-0.3,0-0.3h0c-0.2,0.4-0.8,0.9-1.5,0.9c-1,0-1.6-0.6-1.6-1.8v-2.8h1.4v2.6
		c0,0.4,0.1,0.8,0.6,0.8c0.6,0,1-0.5,1-1.2v-2.2h1.3v4.5C136.1,16.6,134.9,16.6,134.9,16.6z"/>
	<path class="st0" d="M139.3,16.6h-1.4v-4.5h1.4V16.6z M138.6,10.1c0.4,0,0.8,0.3,0.8,0.7c0,0.4-0.3,0.7-0.8,0.7
		c-0.5,0-0.7-0.3-0.7-0.7C137.9,10.4,138.1,10.1,138.6,10.1"/>
	<path class="st0" d="M141.2,12.1v-1.4h1.3v1.4h1.2v1.1h-1.2V15c0,0.5,0.3,0.6,0.6,0.6c0.3,0,0.6-0.1,0.8-0.2v1.1
		c-0.2,0.1-0.6,0.2-1.1,0.2c-0.7,0-1.4-0.3-1.5-1.3c0-0.1,0-0.3,0-0.5v-1.8h-0.6v-1.1L141.2,12.1L141.2,12.1z"/>
	<path class="st0" d="M147,13.1c-0.5,0-0.8,0.4-0.9,0.9h1.7C147.9,13.5,147.6,13.1,147,13.1 M149.1,14.1c0,0.2,0,0.5,0,0.6h-2.9
		c0.1,0.6,0.5,1,1.2,1c0.6,0,1.3-0.2,1.6-0.3v1.1c-0.3,0.1-0.9,0.3-1.7,0.3c-1.6,0-2.5-1-2.5-2.4c0-1.4,1-2.4,2.3-2.4
		C148.4,12,149.1,13,149.1,14.1"/>
	<path class="st0" d="M152.9,15.6c0.5,0,1-0.2,1.2-0.4v1.2c-0.2,0.1-0.6,0.3-1.4,0.3c-1.4,0-2.4-1-2.4-2.4c0-1.4,0.9-2.4,2.4-2.4
		c0.7,0,1.2,0.2,1.4,0.3v1.2c-0.2-0.2-0.7-0.4-1.2-0.4c-0.7,0-1.2,0.5-1.2,1.2C151.7,15.1,152.2,15.6,152.9,15.6"/>
	<path class="st0" d="M155.9,12.1v-1.4h1.3v1.4h1.2v1.1h-1.2V15c0,0.5,0.3,0.6,0.6,0.6c0.3,0,0.6-0.1,0.8-0.2v1.1
		c-0.2,0.1-0.6,0.2-1.1,0.2c-0.7,0-1.4-0.3-1.5-1.3c0-0.1,0-0.3,0-0.5v-1.8h-0.6v-1.1L155.9,12.1L155.9,12.1z"/>
	<path class="st0" d="M162.9,16.6l0-0.5c0-0.2,0-0.3,0-0.3h0c-0.2,0.4-0.8,0.9-1.5,0.9c-1,0-1.6-0.6-1.6-1.8v-2.8h1.4v2.6
		c0,0.4,0.1,0.8,0.6,0.8c0.6,0,1-0.5,1-1.2v-2.2h1.3v4.5C164.1,16.6,162.9,16.6,162.9,16.6z"/>
	<path class="st0" d="M165.9,12.1h1.2l0,0.4c0,0.1,0,0.2,0,0.3c0.3-0.5,0.7-0.9,1.3-0.9c0.1,0,0.3,0,0.3,0v1.3c0,0-0.1-0.1-0.3-0.1
		c-0.7,0-1.2,0.6-1.2,1.4v1.9h-1.3L165.9,12.1L165.9,12.1z"/>
	<path class="st0" d="M172.4,14.7c-1-0.2-1.4,0.1-1.4,0.6c0,0.3,0.2,0.5,0.5,0.5C172,15.7,172.4,15.2,172.4,14.7 M170,12.3
		c0.2-0.1,0.9-0.3,1.6-0.3c1.4,0,2.1,0.7,2.1,1.8v2.8h-1.2l0-0.4c0-0.2,0-0.3,0-0.3h0c-0.1,0.3-0.6,0.8-1.4,0.8
		c-0.8,0-1.4-0.5-1.4-1.4c0-1.1,1.1-1.6,2.7-1.4v-0.1c0-0.5-0.4-0.7-1-0.7c-0.6,0-1.1,0.2-1.4,0.4V12.3z"/>
	<polygon class="st0" points="175.8,18 174.8,18 175.3,16.1 176.5,16.1 	"/>
	<path class="st0" d="M57.8,22.4v4.1h0.7c1.4,0,2.2-0.9,2.2-2.1c0-1.2-0.8-2.1-2.2-2.1H57.8z M56.4,27.7v-6.5h2.1
		c2.2,0,3.6,1.3,3.6,3.2c0,1.9-1.4,3.2-3.6,3.2L56.4,27.7L56.4,27.7z"/>
	<path class="st0" d="M64.9,27.7h-1.3v-4.5h1.3V27.7z M64.2,21.2c0.4,0,0.8,0.3,0.8,0.7c0,0.4-0.3,0.7-0.8,0.7s-0.7-0.3-0.7-0.7
		C63.5,21.5,63.8,21.2,64.2,21.2"/>
	<path class="st0" d="M67.9,25.9c-0.8-0.2-1.4-0.6-1.4-1.5c0-0.8,0.7-1.4,1.7-1.4c0.7,0,1.2,0.2,1.5,0.3v1.1
		c-0.3-0.1-0.7-0.3-1.1-0.3c-0.1,0-0.3,0-0.4,0c-0.2,0-0.4,0.1-0.4,0.3c0,0.2,0.2,0.3,0.7,0.5c1,0.3,1.5,0.6,1.5,1.5
		c0,0.9-0.7,1.4-1.8,1.4c-0.7,0-1.2-0.1-1.5-0.3v-1.2c0.4,0.2,1.1,0.4,1.5,0.4c0.3,0,0.6-0.1,0.6-0.4C68.6,26.2,68.4,26.1,67.9,25.9
		"/>
	<path class="st0" d="M73.2,24.1c-0.5,0-0.8,0.4-0.9,0.9h1.7C74.1,24.6,73.8,24.1,73.2,24.1 M75.3,25.2c0,0.2,0,0.5,0,0.5h-2.9
		c0.1,0.6,0.5,1,1.2,1c0.6,0,1.3-0.2,1.6-0.3v1.1c-0.3,0.1-0.9,0.3-1.7,0.3c-1.6,0-2.5-1-2.5-2.4s1-2.4,2.3-2.4
		C74.6,23.1,75.3,24.1,75.3,25.2"/>
	<path class="st0" d="M79.9,21.5c0.3,0,0.7-0.1,0.8-0.3v1c-0.1,0.2-0.5,0.4-0.8,0.4c-0.5,0-0.9-0.3-1.4-0.3c-0.4,0-0.7,0.2-0.8,0.4
		v-1c0.1-0.2,0.5-0.3,0.9-0.3C79.1,21.2,79.5,21.5,79.9,21.5 M78.2,23.2l0,0.5c0,0.2,0,0.3,0,0.3h0c0.2-0.4,0.8-1,1.6-1
		c1,0,1.6,0.6,1.6,1.8v2.8H80v-2.6c0-0.4-0.1-0.8-0.6-0.8c-0.6,0-1.1,0.5-1.1,1.2v2.2H77v-4.5C77,23.2,78.2,23.2,78.2,23.2z"/>
	<path class="st0" d="M86.2,25.5c0-0.8-0.5-1.2-1.1-1.2S84,24.7,84,25.5c0,0.7,0.5,1.2,1.1,1.2C85.8,26.7,86.2,26.2,86.2,25.5
		 M87.5,25.5c0,1.4-1,2.4-2.4,2.4c-1.4,0-2.4-1-2.4-2.4c0-1.4,1-2.4,2.4-2.4C86.5,23.1,87.5,24.1,87.5,25.5"/>
	<path class="st0" d="M91.3,28.5c0.1,0,0.3,0.1,0.5,0.1c0.6,0,0.9-0.4,1.1-0.9l-1.8-4.5h1.5l0.5,1.6c0.2,0.5,0.4,1.1,0.5,1.7
		c0.1-0.2,0.4-1.3,0.5-1.7l0.5-1.6h1.5l-1.7,4.5c-0.5,1.3-1.2,2-2.1,2.1c-0.2,0-0.4,0-0.6,0c-0.2,0-0.3,0-0.4-0.1V28.5z"/>
	<path class="st0" d="M105.6,25.4c0,1.5-1,2.5-2.7,2.5s-2.7-1-2.7-2.5v-4.1h1.4v4c0,0.8,0.5,1.4,1.3,1.4c0.8,0,1.3-0.5,1.3-1.4v-4
		h1.4L105.6,25.4L105.6,25.4z"/>
	<path class="st0" d="M107.3,23.2h1.2l0,0.4c0,0.1,0,0.2,0,0.3c0.3-0.5,0.7-0.9,1.3-0.9c0.1,0,0.3,0,0.3,0v1.3c0,0-0.1,0-0.3,0
		c-0.7,0-1.2,0.6-1.2,1.4v1.9h-1.3C107.3,27.7,107.3,23.2,107.3,23.2z"/>
	<path class="st0" d="M112.9,25.5c0,0.8,0.5,1.2,1.1,1.2c0.6,0,1.1-0.5,1.1-1.2c0-0.8-0.4-1.2-1.1-1.2
		C113.4,24.2,112.9,24.6,112.9,25.5 M111.5,21.2h1.3v2.1c0,0.2,0,0.4,0,0.4h0c0.2-0.4,0.8-0.7,1.4-0.7c1.1,0,2.1,0.9,2.1,2.4
		c0,1.5-0.9,2.4-2.1,2.4c-0.7,0-1.3-0.4-1.5-0.8h0c0,0,0,0.1,0,0.3l0,0.4h-1.2L111.5,21.2L111.5,21.2z"/>
	<path class="st0" d="M120.1,25.8c-1-0.2-1.4,0.1-1.4,0.6c0,0.3,0.2,0.5,0.5,0.5C119.7,26.8,120.1,26.3,120.1,25.8 M117.7,23.4
		c0.2-0.1,0.8-0.3,1.6-0.3c1.4,0,2.1,0.7,2.1,1.8v2.8h-1.2l0-0.4c0-0.2,0-0.3,0-0.3h0c-0.1,0.3-0.6,0.9-1.4,0.9
		c-0.8,0-1.4-0.5-1.4-1.4c0-1.1,1.1-1.6,2.7-1.4V25c0-0.5-0.4-0.7-1-0.7c-0.6,0-1.1,0.2-1.4,0.4L117.7,23.4L117.7,23.4z"/>
	<path class="st0" d="M124.3,23.2l0,0.5c0,0.2,0,0.3,0,0.3h0c0.2-0.4,0.8-1,1.6-1c1,0,1.6,0.6,1.6,1.8v2.8h-1.3v-2.6
		c0-0.4-0.1-0.8-0.6-0.8c-0.6,0-1.1,0.5-1.1,1.2v2.2h-1.3v-4.5C123.1,23.2,124.3,23.2,124.3,23.2z"/>
	<path class="st0" d="M130.5,27.7h-1.4v-4.5h1.4V27.7z M129.9,21.2c0.4,0,0.8,0.3,0.8,0.7c0,0.4-0.3,0.7-0.8,0.7
		c-0.5,0-0.8-0.3-0.8-0.7C129.1,21.5,129.4,21.2,129.9,21.2"/>
	<path class="st0" d="M133.5,25.9c-0.8-0.2-1.4-0.6-1.4-1.5c0-0.8,0.7-1.4,1.7-1.4c0.6,0,1.2,0.2,1.5,0.3v1.1
		c-0.3-0.1-0.7-0.3-1.1-0.3c-0.1,0-0.3,0-0.4,0c-0.2,0-0.4,0.1-0.4,0.3c0,0.2,0.2,0.3,0.7,0.5c1,0.3,1.5,0.6,1.5,1.5
		c0,0.9-0.7,1.4-1.9,1.4c-0.7,0-1.2-0.1-1.5-0.3v-1.2c0.4,0.2,1.1,0.4,1.5,0.4c0.3,0,0.6-0.1,0.6-0.4
		C134.2,26.2,134,26.1,133.5,25.9"/>
	<path class="st0" d="M138.2,23.2l0,0.5c0,0.2,0,0.3,0,0.3h0c0.2-0.5,0.7-0.8,1.3-0.9c0.1,0,0.3,0,0.4,0c0.5,0.1,0.9,0.4,1.1,0.9
		c0.3-0.5,0.9-0.9,1.5-0.9c1,0,1.6,0.6,1.6,1.8v2.8h-1.4v-2.6c0-0.4-0.1-0.8-0.6-0.8c-0.8,0-1,0.7-1,1.4v2h-1.3v-2.6
		c0-0.4-0.1-0.8-0.6-0.8c-0.8,0-1,0.7-1,1.4v2h-1.4v-4.5H138.2z"/>
	<path class="st0" d="M148.9,25.5c0-0.8-0.5-1.2-1.1-1.2c-0.6,0-1.1,0.5-1.1,1.2c0,0.7,0.5,1.2,1.1,1.2
		C148.4,26.7,148.9,26.2,148.9,25.5 M150.2,25.5c0,1.4-1,2.4-2.4,2.4c-1.4,0-2.4-1-2.4-2.4c0-1.4,1-2.4,2.4-2.4
		C149.2,23.1,150.2,24.1,150.2,25.5"/>
	<path class="st0" d="M60.4,36.5c0,1.2-0.8,1.9-2,1.9c-1.2,0-2-0.7-2-1.9V33h0.6v3.5c0,0.9,0.5,1.4,1.4,1.4s1.5-0.5,1.5-1.4V33h0.6
		L60.4,36.5L60.4,36.5z"/>
	<path class="st0" d="M63.1,33.5v4.4H64c1.3,0,2.2-0.9,2.2-2.2s-1-2.2-2.3-2.2H63.1z M62.5,38.3V33H64c1.6,0,2.8,1,2.8,2.7
		s-1.2,2.7-2.8,2.7H62.5z"/>
	<polygon class="st0" points="68.7,38.3 68.7,33 71.9,33 71.9,33.5 69.2,33.5 69.2,35.4 71.5,35.4 71.5,35.9 69.2,35.9 69.2,37.9 
		72,37.9 72,38.3 	"/>
	<polygon class="st0" points="73.8,38.3 73.8,33 74.4,33 74.4,37.9 76.8,37.9 76.8,38.3 	"/>
	<path class="st0" d="M81.2,36.6c-0.4-0.9-0.7-1.7-1.1-2.5c-0.3,0.8-0.7,1.6-1.1,2.5H81.2z M80.1,32.9L80.1,32.9l2.5,5.5H82L81.4,37
		h-2.6l-0.6,1.3h-0.6L80.1,32.9z"/>
	<path class="st0" d="M84.7,33.5v2.2h1.2c0.8,0,1.2-0.4,1.2-1.1c0-0.7-0.5-1.1-1.3-1.1L84.7,33.5L84.7,33.5z M85.8,33
		c1.1,0,1.8,0.6,1.8,1.6c0,0.8-0.5,1.3-1.2,1.5l1.3,2.3h-0.6l-1.2-2.2h-1.2v2.2h-0.6V33C84.1,33,85.8,33,85.8,33z"/>
</g>
</svg>
