<?xml version="1.0" encoding="utf-8"?>
<!-- Generator: Adobe Illustrator 25.0.0, SVG Export Plug-In . SVG Version: 6.00 Build 0)  -->
<svg version="1.1" id="Capa_1" xmlns="http://www.w3.org/2000/svg" xmlns:xlink="http://www.w3.org/1999/xlink" x="0px" y="0px"
	 viewBox="0 0 143.16 48.48" style="enable-background:new 0 0 143.16 48.48;" xml:space="preserve">
<style type="text/css">
	.st0{fill:#2C4122;}
</style>
<g>
	<path class="st0" d="M59.38,7.98v4.83c0,0.69,0.11,1.19,0.34,1.51c0.33,0.46,0.8,0.69,1.4,0.69c0.61,0,1.08-0.23,1.41-0.69
		c0.22-0.31,0.33-0.81,0.33-1.51V7.98h1.2v5.16c0,0.84-0.26,1.54-0.78,2.09c-0.59,0.61-1.31,0.91-2.17,0.91
		c-0.86,0-1.57-0.3-2.16-0.91c-0.52-0.55-0.78-1.24-0.78-2.09V7.98H59.38z"/>
	<polygon class="st0" points="66.13,15.99 66.13,7.43 71.93,13.55 71.93,7.98 73.13,7.98 73.13,16.48 67.33,10.38 67.33,15.99 	"/>
	<rect x="75.2" y="7.98" class="st0" width="1.2" height="8.02"/>
	<polygon class="st0" points="78.88,7.98 81.07,13.54 83.3,7.98 84.62,7.98 81.05,16.6 77.56,7.98 	"/>
	<polygon class="st0" points="90.16,9.11 86.97,9.11 86.97,11.04 90.06,11.04 90.06,12.18 86.97,12.18 86.97,14.86 90.16,14.86 
		90.16,15.99 85.77,15.99 85.77,7.98 90.16,7.98 	"/>
	<path class="st0" d="M93.09,11.66h0.38c1.14,0,1.71-0.44,1.71-1.31c0-0.82-0.55-1.23-1.66-1.23h-0.43V11.66z M94.59,12.58
		l2.46,3.42h-1.47l-2.27-3.28h-0.21v3.28h-1.2V7.98h1.41c1.05,0,1.81,0.2,2.28,0.6c0.52,0.44,0.78,1.03,0.78,1.76
		c0,0.57-0.16,1.06-0.49,1.46C95.54,12.2,95.12,12.46,94.59,12.58"/>
	<path class="st0" d="M102.9,9.17l-0.97,0.58c-0.18-0.32-0.36-0.53-0.52-0.62c-0.17-0.11-0.39-0.17-0.66-0.17
		c-0.33,0-0.61,0.1-0.83,0.29c-0.22,0.19-0.33,0.42-0.33,0.71c0,0.39,0.29,0.7,0.87,0.94l0.79,0.33c0.64,0.26,1.12,0.58,1.42,0.96
		c0.3,0.38,0.45,0.84,0.45,1.4c0,0.74-0.25,1.35-0.73,1.83c-0.49,0.48-1.1,0.73-1.83,0.73c-0.69,0-1.26-0.21-1.71-0.62
		c-0.44-0.41-0.72-0.99-0.83-1.74l1.21-0.27c0.05,0.47,0.15,0.8,0.29,0.98c0.25,0.35,0.61,0.52,1.08,0.52
		c0.38,0,0.69-0.13,0.93-0.38c0.25-0.25,0.37-0.57,0.37-0.96c0-0.16-0.02-0.3-0.06-0.43c-0.04-0.13-0.11-0.25-0.2-0.36
		c-0.09-0.11-0.21-0.21-0.35-0.3c-0.14-0.1-0.32-0.19-0.52-0.27L100,11.98c-1.09-0.46-1.63-1.14-1.63-2.03
		c0-0.6,0.23-1.11,0.68-1.51c0.46-0.41,1.03-0.61,1.71-0.61C101.67,7.82,102.39,8.27,102.9,9.17"/>
	<rect x="104.72" y="7.98" class="st0" width="1.2" height="8.02"/>
	<path class="st0" d="M109.19,14.86h0.54c0.54,0,0.99-0.06,1.35-0.17c0.36-0.12,0.68-0.31,0.96-0.58c0.59-0.54,0.89-1.25,0.89-2.12
		c0-0.88-0.29-1.59-0.88-2.14c-0.52-0.49-1.3-0.73-2.32-0.73h-0.54V14.86z M107.99,16V7.98h1.67c0.8,0,1.43,0.08,1.89,0.24
		c0.5,0.16,0.95,0.42,1.36,0.79c0.82,0.75,1.23,1.75,1.23,2.98c0,1.23-0.43,2.23-1.28,2.99c-0.43,0.38-0.88,0.65-1.35,0.79
		c-0.44,0.15-1.06,0.22-1.87,0.22H107.99z"/>
	<path class="st0" d="M119.6,12.91l-1.18-2.73l-1.24,2.73H119.6z M120.09,14.05h-3.4l-0.89,1.95h-1.29l3.94-8.52l3.8,8.52h-1.31
		L120.09,14.05z"/>
	<path class="st0" d="M124.59,14.86h0.54c0.54,0,0.99-0.06,1.34-0.17c0.36-0.12,0.68-0.31,0.97-0.58c0.59-0.54,0.89-1.25,0.89-2.12
		c0-0.88-0.29-1.59-0.88-2.14c-0.52-0.49-1.3-0.73-2.32-0.73h-0.54V14.86z M123.39,16V7.98h1.67c0.8,0,1.43,0.08,1.9,0.24
		c0.5,0.16,0.95,0.42,1.36,0.79c0.82,0.75,1.23,1.75,1.23,2.98c0,1.23-0.43,2.23-1.28,2.99c-0.43,0.38-0.88,0.65-1.35,0.79
		c-0.44,0.15-1.06,0.22-1.87,0.22H123.39z"/>
	<path class="st0" d="M59.38,26.91h0.54c0.54,0,0.99-0.06,1.34-0.17c0.36-0.12,0.68-0.31,0.97-0.58c0.59-0.54,0.88-1.25,0.88-2.12
		c0-0.88-0.29-1.59-0.88-2.14c-0.52-0.49-1.3-0.73-2.32-0.73h-0.54V26.91z M58.18,28.05v-8.02h1.67c0.8,0,1.43,0.08,1.89,0.24
		c0.5,0.16,0.95,0.42,1.36,0.8c0.82,0.76,1.23,1.75,1.23,2.97c0,1.23-0.43,2.23-1.29,2.99c-0.43,0.38-0.88,0.64-1.35,0.79
		c-0.44,0.15-1.06,0.22-1.87,0.22H58.18z"/>
	<polygon class="st0" points="70.23,21.17 67.04,21.17 67.04,23.1 70.14,23.1 70.14,24.23 67.04,24.23 67.04,26.91 70.23,26.91 
		70.23,28.05 65.84,28.05 65.84,20.03 70.23,20.03 	"/>
	<polygon class="st0" points="75.34,20.03 75.34,26.91 77.68,26.91 77.68,28.05 74.13,28.05 74.13,20.03 	"/>
	<path class="st0" d="M83.44,24.96l-1.18-2.73l-1.24,2.73H83.44z M83.93,26.1h-3.4l-0.89,1.95h-1.29l3.94-8.52l3.8,8.52h-1.32
		L83.93,26.1z"/>
	<path class="st0" d="M90.1,23.71h0.38c1.14,0,1.71-0.44,1.71-1.32c0-0.82-0.55-1.23-1.66-1.23H90.1V23.71z M91.6,24.63l2.46,3.42
		h-1.47l-2.27-3.28H90.1v3.28h-1.2v-8.02h1.4c1.05,0,1.81,0.2,2.28,0.59c0.52,0.44,0.77,1.03,0.77,1.76c0,0.57-0.16,1.05-0.49,1.46
		C92.55,24.26,92.13,24.52,91.6,24.63"/>
	<polygon class="st0" points="99.65,21.17 96.46,21.17 96.46,23.1 99.55,23.1 99.55,24.23 96.46,24.23 96.46,26.91 99.65,26.91 
		99.65,28.05 95.26,28.05 95.26,20.03 99.65,20.03 	"/>
	<path class="st0" d="M102.42,23.67h0.45c1.1,0,1.65-0.43,1.65-1.28c0-0.83-0.57-1.24-1.71-1.24h-0.4V23.67z M102.42,24.79v3.26
		h-1.2v-8.02h1.36c0.67,0,1.17,0.05,1.51,0.14c0.35,0.09,0.65,0.27,0.91,0.53c0.46,0.45,0.69,1.02,0.69,1.7
		c0,0.73-0.24,1.32-0.73,1.75c-0.49,0.43-1.15,0.64-1.97,0.64H102.42z"/>
	<path class="st0" d="M111.69,17.88l-2.1,1.43l-0.57-0.48l1.65-1.67L111.69,17.88z M108.12,20.03v4.83c0,0.69,0.11,1.19,0.34,1.51
		c0.33,0.46,0.8,0.69,1.41,0.69c0.61,0,1.08-0.23,1.41-0.69c0.22-0.31,0.34-0.81,0.34-1.51v-4.83h1.2v5.16
		c0,0.84-0.26,1.54-0.78,2.09c-0.59,0.61-1.31,0.92-2.16,0.92c-0.86,0-1.58-0.31-2.16-0.92c-0.52-0.55-0.78-1.24-0.78-2.09v-5.16
		H108.12z"/>
	<path class="st0" d="M115.92,26.91h0.74c0.54,0,0.94-0.11,1.2-0.32c0.27-0.23,0.4-0.53,0.4-0.88c0-0.35-0.13-0.64-0.39-0.87
		c-0.25-0.23-0.7-0.35-1.34-0.35h-0.61V26.91z M115.92,23.47h0.38c0.45,0,0.77-0.1,0.98-0.3c0.21-0.2,0.31-0.49,0.31-0.88
		c0-0.38-0.11-0.66-0.32-0.86c-0.21-0.2-0.52-0.3-0.93-0.3h-0.42V23.47z M114.72,28.05v-8.02h1.2c0.53,0,0.96,0.04,1.27,0.12
		c0.32,0.08,0.59,0.22,0.81,0.42c0.22,0.2,0.4,0.46,0.53,0.76c0.13,0.31,0.2,0.62,0.2,0.93c0,0.58-0.22,1.06-0.65,1.46
		c0.42,0.15,0.75,0.4,1,0.76c0.25,0.36,0.37,0.78,0.37,1.26c0,0.63-0.22,1.16-0.66,1.59c-0.26,0.27-0.56,0.45-0.89,0.56
		c-0.36,0.1-0.81,0.15-1.36,0.15H114.72z"/>
	<polygon class="st0" points="122.16,20.03 122.16,26.91 124.5,26.91 124.5,28.05 120.96,28.05 120.96,20.03 	"/>
	<rect x="125.64" y="20.03" class="st0" width="1.2" height="8.02"/>
	<path class="st0" d="M134.63,20.32v1.43c-0.69-0.59-1.41-0.88-2.15-0.88c-0.82,0-1.51,0.3-2.07,0.89
		c-0.56,0.59-0.85,1.31-0.85,2.16c0,0.84,0.28,1.55,0.85,2.13c0.56,0.58,1.26,0.87,2.07,0.87c0.42,0,0.78-0.07,1.08-0.21
		c0.17-0.07,0.34-0.16,0.51-0.28c0.18-0.12,0.36-0.26,0.56-0.43v1.46c-0.69,0.39-1.41,0.59-2.16,0.59c-1.14,0-2.11-0.4-2.91-1.2
		c-0.8-0.81-1.2-1.78-1.2-2.92c0-1.02,0.34-1.93,1-2.73c0.83-0.98,1.89-1.47,3.2-1.47C133.27,19.73,133.96,19.92,134.63,20.32"/>
	<path class="st0" d="M140.52,24.82l-1.18-2.73l-1.24,2.73H140.52z M141.01,25.96h-3.41l-0.89,1.95h-1.29l3.94-8.52l3.8,8.52h-1.31
		L141.01,25.96z"/>
	<path class="st0" d="M59.38,32.09v4.82c0,0.69,0.11,1.19,0.34,1.51c0.33,0.46,0.8,0.69,1.4,0.69c0.61,0,1.08-0.23,1.41-0.69
		c0.22-0.31,0.33-0.81,0.33-1.51v-4.82h1.2v5.16c0,0.85-0.26,1.54-0.78,2.09c-0.59,0.61-1.31,0.91-2.17,0.91
		c-0.86,0-1.57-0.3-2.16-0.91c-0.52-0.55-0.78-1.24-0.78-2.09v-5.16H59.38z"/>
	<path class="st0" d="M67.49,35.77h0.38c1.13,0,1.71-0.44,1.71-1.32c0-0.82-0.56-1.23-1.66-1.23h-0.43V35.77z M68.99,36.69
		l2.46,3.42h-1.47l-2.27-3.28h-0.22v3.28h-1.2v-8.02h1.4c1.05,0,1.81,0.2,2.28,0.6c0.52,0.44,0.78,1.03,0.78,1.76
		c0,0.57-0.16,1.06-0.49,1.46C69.94,36.31,69.52,36.57,68.99,36.69"/>
	<path class="st0" d="M74.04,32.09v4.82c0,0.69,0.11,1.19,0.34,1.51c0.33,0.46,0.8,0.69,1.41,0.69c0.61,0,1.08-0.23,1.41-0.69
		c0.22-0.31,0.34-0.81,0.34-1.51v-4.82h1.2v5.16c0,0.85-0.26,1.54-0.78,2.09c-0.59,0.61-1.31,0.91-2.16,0.91
		c-0.86,0-1.58-0.3-2.16-0.91c-0.52-0.55-0.78-1.24-0.78-2.09v-5.16H74.04z"/>
	<path class="st0" d="M85.05,35.93h3.29v0.27c0,0.6-0.07,1.14-0.21,1.6c-0.14,0.43-0.37,0.83-0.7,1.21
		c-0.74,0.84-1.68,1.26-2.82,1.26c-1.11,0-2.07-0.4-2.86-1.21c-0.79-0.81-1.19-1.79-1.19-2.93c0-1.16,0.4-2.15,1.21-2.96
		c0.81-0.81,1.79-1.22,2.95-1.22c0.62,0,1.2,0.13,1.74,0.38c0.52,0.25,1.02,0.67,1.52,1.24l-0.86,0.83
		c-0.65-0.88-1.45-1.31-2.39-1.31c-0.84,0-1.55,0.29-2.12,0.88c-0.57,0.57-0.86,1.29-0.86,2.16c0,0.9,0.32,1.63,0.96,2.21
		c0.59,0.54,1.24,0.81,1.93,0.81c0.59,0,1.12-0.2,1.59-0.6c0.47-0.4,0.73-0.89,0.79-1.45h-1.98V35.93z"/>
	<path class="st0" d="M91.36,32.09v4.82c0,0.69,0.11,1.19,0.33,1.51c0.33,0.46,0.8,0.69,1.41,0.69c0.61,0,1.08-0.23,1.41-0.69
		c0.22-0.31,0.34-0.81,0.34-1.51v-4.82h1.2v5.16c0,0.85-0.26,1.54-0.78,2.09c-0.59,0.61-1.31,0.91-2.17,0.91
		c-0.86,0-1.57-0.3-2.16-0.91c-0.52-0.55-0.79-1.24-0.79-2.09v-5.16H91.36z"/>
	<path class="st0" d="M102.12,37.02l-1.18-2.73l-1.24,2.73H102.12z M102.61,38.16H99.2l-0.89,1.95h-1.29l3.94-8.52l3.8,8.52h-1.31
		L102.61,38.16z"/>
	<polygon class="st0" points="106.98,36.64 104.38,32.09 105.76,32.09 107.58,35.29 109.41,32.09 110.79,32.09 108.18,36.64 
		108.18,40.1 106.98,40.1 	"/>
	<polygon class="st0" points="13.6,45.23 13.6,45.33 13.6,45.62 14.18,45.62 14.18,45.33 14.18,45.23 	"/>
	<rect x="13.6" y="44.05" class="st0" width="0.58" height="0.39"/>
	<polygon class="st0" points="16.2,40.8 15.74,40.8 15.97,41.87 16.2,41.99 16.43,41.87 16.66,40.8 	"/>
	<rect x="18.22" y="46.51" class="st0" width="0.87" height="0.39"/>
	<rect x="18.22" y="45.23" class="st0" width="0.87" height="0.39"/>
	<rect x="18.22" y="44.05" class="st0" width="0.87" height="0.39"/>
	<polygon class="st0" points="21.11,40.8 20.65,40.8 20.88,41.87 21.11,41.99 21.35,41.87 21.58,40.8 	"/>
	<rect x="23.14" y="46.51" class="st0" width="0.87" height="0.39"/>
	<rect x="23.14" y="45.23" class="st0" width="0.87" height="0.39"/>
	<rect x="23.14" y="44.05" class="st0" width="0.87" height="0.39"/>
	<polygon class="st0" points="26.03,40.8 25.57,40.8 25.8,41.87 26.03,41.99 26.26,41.87 26.49,40.8 	"/>
	<polygon class="st0" points="28.05,45.23 28.05,45.33 28.05,45.62 28.63,45.62 28.63,45.33 28.63,45.23 	"/>
	<rect x="28.05" y="44.05" class="st0" width="0.58" height="0.39"/>
	<rect x="33.55" y="36.19" class="st0" width="1.25" height="0.2"/>
	<rect x="33.55" y="37.46" class="st0" width="1.25" height="0.2"/>
	<rect x="33.55" y="34.91" class="st0" width="1.25" height="0.2"/>
	<rect x="33.55" y="33.63" class="st0" width="1.25" height="0.2"/>
	<rect x="33.55" y="32.35" class="st0" width="1.25" height="0.19"/>
	<rect x="33.55" y="31.07" class="st0" width="1.25" height="0.2"/>
	<rect x="31.14" y="32.35" class="st0" width="1.93" height="5.31"/>
	<rect x="29.4" y="36.19" class="st0" width="1.25" height="0.2"/>
	<rect x="29.4" y="37.46" class="st0" width="1.25" height="0.2"/>
	<rect x="29.4" y="34.91" class="st0" width="1.25" height="0.2"/>
	<rect x="29.4" y="33.63" class="st0" width="1.25" height="0.2"/>
	<rect x="29.4" y="32.35" class="st0" width="1.25" height="0.19"/>
	<rect x="29.4" y="31.07" class="st0" width="1.25" height="0.2"/>
	<rect x="24.49" y="38.35" class="st0" width="3.08" height="0.59"/>
	<rect x="25.07" y="32.94" class="st0" width="1.93" height="5.12"/>
	<polygon class="st0" points="19.57,38.35 19.57,38.94 22.66,38.94 22.66,38.35 21.11,38.35 	"/>
	<polygon class="st0" points="22.08,38.05 22.08,32.94 21.11,32.94 20.15,32.94 20.15,38.05 21.11,38.05 	"/>
	<rect x="14.66" y="38.35" class="st0" width="3.08" height="0.59"/>
	<rect x="15.24" y="32.94" class="st0" width="1.93" height="5.12"/>
	<rect x="11.57" y="36.19" class="st0" width="1.25" height="0.2"/>
	<rect x="11.57" y="37.46" class="st0" width="1.25" height="0.2"/>
	<rect x="11.57" y="34.91" class="st0" width="1.25" height="0.2"/>
	<rect x="11.57" y="33.63" class="st0" width="1.25" height="0.2"/>
	<rect x="11.57" y="32.35" class="st0" width="1.25" height="0.19"/>
	<rect x="11.57" y="31.07" class="st0" width="1.25" height="0.2"/>
	<rect x="9.17" y="32.35" class="st0" width="1.93" height="5.31"/>
	<rect x="7.43" y="34.91" class="st0" width="1.25" height="0.2"/>
	<rect x="7.43" y="36.19" class="st0" width="1.25" height="0.2"/>
	<rect x="7.43" y="33.63" class="st0" width="1.25" height="0.2"/>
	<rect x="7.43" y="32.35" class="st0" width="1.25" height="0.19"/>
	<rect x="7.43" y="31.07" class="st0" width="1.25" height="0.2"/>
	<rect x="7.43" y="37.46" class="st0" width="1.25" height="0.2"/>
	<path class="st0" d="M16.15,21.53c0.58,0,1.06-0.48,1.06-1.08c0-0.6-0.48-1.08-1.06-1.08c-0.59,0-1.06,0.49-1.06,1.08
		C15.09,21.05,15.57,21.53,16.15,21.53"/>
	<path class="st0" d="M21.11,21.53c0.59,0,1.06-0.48,1.06-1.08c0-0.6-0.47-1.08-1.06-1.08c-0.58,0-1.06,0.49-1.06,1.08
		C20.05,21.05,20.53,21.53,21.11,21.53"/>
	<path class="st0" d="M26.08,21.53c0.58,0,1.06-0.48,1.06-1.08c0-0.6-0.47-1.08-1.06-1.08c-0.59,0-1.06,0.49-1.06,1.08
		C25.02,21.05,25.49,21.53,26.08,21.53"/>
	<path class="st0" d="M13.5,25.86h-0.06c-0.8-0.96-1.99-1.57-3.32-1.57c-1.33,0-2.52,0.61-3.31,1.57H6.76v0.39h6.75V25.86z"/>
	<polygon class="st0" points="28.63,23.49 28.63,22.91 21.12,22.91 13.6,22.91 13.6,23.49 21.12,23.49 	"/>
	<polygon class="st0" points="14.66,25.17 21.11,25.17 27.57,25.17 27.57,24.68 28.63,24.68 28.63,24.19 13.6,24.19 13.6,24.68 
		14.66,24.68 	"/>
	<rect x="14.66" y="25.86" class="st0" width="12.91" height="0.39"/>
	<polygon class="st0" points="29.4,27.04 12.83,27.04 12.83,26.55 7.43,26.55 7.43,27.04 7.43,27.43 7.43,27.73 13.6,27.73 
		13.6,28.42 28.63,28.42 28.63,27.73 34.8,27.73 34.8,27.43 34.8,27.04 34.8,26.55 29.4,26.55 	"/>
	<path class="st0" d="M7.43,29.5h1.54v0.88h0.21c0.21,0.3,0.55,0.49,0.94,0.49c0.39,0,0.73-0.2,0.94-0.49h0.22V29.5h1.54v-0.79H7.43
		V29.5z"/>
	<path class="st0" d="M29.4,29.5h1.54v0.88h0.22c0.21,0.3,0.55,0.49,0.94,0.49c0.38,0,0.73-0.2,0.94-0.49h0.22V29.5h1.54v-0.79h-5.4
		V29.5z"/>
	<path class="st0" d="M13.6,30.19h1.91c-0.06,0.06-0.11,0.12-0.15,0.2h-0.71v1.08h0.77c0.18,0.24,0.46,0.39,0.77,0.39
		c0.32,0,0.6-0.16,0.77-0.39h0.77v-1.08h-0.71c-0.04-0.07-0.09-0.14-0.15-0.2h2.84c0.25-0.53,0.78-0.89,1.39-0.89H13.6V30.19z
		 M16.2,30.16c0.39,0,0.7,0.32,0.7,0.71c0,0.39-0.31,0.71-0.7,0.71c-0.38,0-0.7-0.32-0.7-0.71C15.5,30.48,15.81,30.16,16.2,30.16"/>
	<path class="st0" d="M22.49,30.19h2.84c-0.06,0.06-0.11,0.12-0.15,0.2h-0.71v1.08h0.77c0.18,0.24,0.46,0.39,0.77,0.39
		c0.31,0,0.6-0.16,0.77-0.39h0.77v-1.08h-0.71c-0.04-0.07-0.09-0.14-0.15-0.2h1.91V29.3H21.1C21.71,29.3,22.24,29.66,22.49,30.19
		 M26.02,30.16c0.39,0,0.7,0.32,0.7,0.71c0,0.39-0.31,0.71-0.7,0.71c-0.38,0-0.7-0.32-0.7-0.71C25.32,30.48,25.63,30.16,26.02,30.16
		"/>
	<path class="st0" d="M19.19,30.38v1.08h0.5c-0.07-0.18-0.11-0.38-0.11-0.59c0-0.17,0.03-0.34,0.08-0.49H19.19z"/>
	<path class="st0" d="M22.66,30.87c0,0.21-0.04,0.41-0.11,0.59h0.5v-1.08h-0.46C22.63,30.54,22.66,30.7,22.66,30.87"/>
	<path class="st0" d="M22.08,30.87c0-0.27-0.11-0.52-0.28-0.7l-0.58,0.76c0,0.01-0.01,0.01-0.01,0.02l0,0c0,0,0,0-0.01,0.01
		c-0.01,0.01-0.01,0.01-0.02,0.02c-0.05,0.03-0.11,0.02-0.15-0.02c-0.01-0.01-0.02-0.02-0.02-0.04l-0.31-0.49l0.42,0.28l0.69-0.55
		c-0.17-0.18-0.42-0.29-0.68-0.29c-0.53,0-0.96,0.44-0.96,0.98c0,0.55,0.43,0.98,0.96,0.98C21.65,31.86,22.08,31.42,22.08,30.87"/>
	<polygon class="st0" points="14.66,32.05 14.66,32.55 17.74,32.55 17.74,32.25 17.74,32.05 	"/>
	<path class="st0" d="M21.11,32.45c-0.39,0-0.74-0.15-1.02-0.39h-0.52v0.49h1.54h1.54v-0.49h-0.52
		C21.86,32.3,21.51,32.45,21.11,32.45"/>
	<rect x="24.49" y="32.05" class="st0" width="3.08" height="0.49"/>
	<path class="st0" d="M15.72,41.45l-0.08-0.38c-1.17,0.26-2.04,1.32-2.04,2.59h0.29h0.1h0.19h0.1h0.1c0-0.9,0.62-1.64,1.44-1.83
		l-0.04-0.19L15.72,41.45z"/>
	<path class="st0" d="M20.6,41.24l-0.04-0.18c-0.89,0.2-1.61,0.86-1.9,1.72c-0.29-0.86-1.01-1.52-1.9-1.72l-0.04,0.18l-0.13,0.59
		c0.82,0.18,1.44,0.93,1.44,1.82h0.1h0.1h0.19h0.1h0.29h0.09h0.19h0.1h0.1c0-0.9,0.61-1.64,1.44-1.82h0L20.6,41.24L20.6,41.24z"/>
	<path class="st0" d="M25.47,41.06c-0.89,0.2-1.61,0.86-1.9,1.72c-0.29-0.86-1.01-1.52-1.9-1.72l-0.04,0.18l-0.13,0.59
		c0.82,0.19,1.44,0.93,1.44,1.82h0.1h0.1h0.2h0.09h0.29h0.1h0.19h0.1h0.1c0-0.89,0.62-1.64,1.44-1.82l-0.13-0.59L25.47,41.06z"/>
	<path class="st0" d="M26.59,41.06l-0.04,0.18l-0.13,0.59c0.82,0.19,1.44,0.93,1.44,1.82h0.1h0.1h0.19h0.1h0.29
		C28.63,42.39,27.76,41.33,26.59,41.06"/>
	<path class="st0" d="M18.13,46.06c-0.03,0-0.05,0.02-0.05,0.05c0,0.03,0.02,0.05,0.05,0.05c0.03,0,0.05-0.02,0.05-0.05
		C18.18,46.09,18.15,46.06,18.13,46.06"/>
	<path class="st0" d="M18.42,46.16c0-0.03-0.02-0.05-0.05-0.05c-0.03,0-0.05,0.02-0.05,0.05c0,0.03,0.02,0.05,0.05,0.05
		C18.39,46.21,18.42,46.19,18.42,46.16"/>
	<path class="st0" d="M18.71,45.97c0-0.02-0.02-0.05-0.05-0.05c-0.03,0-0.05,0.02-0.05,0.05c0,0.03,0.02,0.05,0.05,0.05
		C18.68,46.02,18.71,45.99,18.71,45.97"/>
	<rect x="17.74" y="15.04" class="st0" width="0.68" height="0.69"/>
	<rect x="18.61" y="15.04" class="st0" width="0.68" height="0.69"/>
	<rect x="20.34" y="15.04" class="st0" width="0.68" height="0.69"/>
	<rect x="21.21" y="15.04" class="st0" width="0.68" height="0.69"/>
	<rect x="19.48" y="15.04" class="st0" width="0.68" height="0.69"/>
	<rect x="16.88" y="15.04" class="st0" width="0.68" height="0.69"/>
	<rect x="14.27" y="15.04" class="st0" width="0.68" height="0.69"/>
	<rect x="15.14" y="15.04" class="st0" width="0.68" height="0.69"/>
	<rect x="16.01" y="15.04" class="st0" width="0.68" height="0.69"/>
	<rect x="27.28" y="15.04" class="st0" width="0.68" height="0.69"/>
	<rect x="26.41" y="15.04" class="st0" width="0.68" height="0.69"/>
	<rect x="25.55" y="15.04" class="st0" width="0.68" height="0.69"/>
	<path class="st0" d="M41.15,29.1h-5.77v0.39h5.73c-0.03,0.23-0.06,0.46-0.09,0.69h-5.35h-0.29v1.08v0.2v0.2v0.49v0.3v5.6h0.29v-5.6
		h4.87c-0.09,0.33-0.19,0.66-0.29,0.98h-1.1v2.72c-0.24,0.49-0.5,0.97-0.77,1.44v-4.16h-1.73v4.62h1.45c-0.32,0.51-0.66,1-1.02,1.47
		h-1.68v-0.59h-6.36v0.21v0.08v0.1h-0.77H13.7h-0.1h-0.39v-0.1v-0.17v-0.12H6.85v0.59H5.17c-0.36-0.47-0.7-0.97-1.02-1.47H5.6v-4.62
		H3.87v4.16c-0.28-0.46-0.53-0.95-0.77-1.43v-2.73h-1.1c-0.11-0.32-0.2-0.65-0.29-0.98h4.87v5.6h0.29v-5.6v-0.3v-0.49v-0.2v-0.2
		v-1.08H6.56H1.21c-0.03-0.23-0.06-0.46-0.09-0.69h5.73V29.1H1.08c-0.03-0.26-0.05-0.52-0.07-0.79h0.44h5.4v-1.77H6.08v-0.88H6.6
		c0.24-0.29,0.52-0.56,0.83-0.79V23.5h1.55c0.34,0.2,0.73,0.32,1.15,0.32c0.42,0,0.81-0.11,1.15-0.32h1.54h0.58v-0.59h-1.44v-0.3
		H8.3v0.3H6.85v-0.98v-0.1h0.58c0.07-2.51,2.74-4.52,6.02-4.52c0.02,0,0.04,0,0.06,0c0.03,0,0.05,0,0.08,0h7.51h7.52
		c0.03,0,0.05,0,0.08,0c0.02,0,0.04,0,0.07,0c3.28,0,5.95,2.01,6.02,4.52h0.58v1.08h-1.45v-0.3h-3.66v0.3h-1.45v0.59h2.12
		c0.34,0.2,0.73,0.32,1.15,0.32c0.42,0,0.81-0.11,1.15-0.32h1.54v1.38c0.31,0.23,0.59,0.49,0.83,0.79h0.52v0.88h-0.77v1.77h5.43
		h0.41C41.2,28.58,41.18,28.85,41.15,29.1 M40.62,32.15h-4.95v-0.69h5.11C40.72,31.7,40.67,31.93,40.62,32.15 M35.38,41.39h-6.36
		h-0.01v0.59h5.86c-0.63,0.6-1.3,1.16-2,1.67h-0.02h-1.37h-2.46v0.6h2.46h0.5h0.04c-1.37,0.9-2.86,1.65-4.44,2.19v-0.02v-0.04v-2.72
		c0-0.87-0.69-1.57-1.54-1.57c-0.85,0-1.54,0.7-1.54,1.57v2.72v0.83v0.03c-0.6,0.1-1.21,0.18-1.83,0.23v-0.03v-0.57v-3.2
		c0-0.87-0.69-1.57-1.54-1.57c-0.85,0-1.54,0.7-1.54,1.57v3.2v0.57v0.03c-0.62-0.05-1.23-0.13-1.83-0.23v-0.03v-0.99v-2.56
		c0-0.87-0.69-1.57-1.54-1.57c-0.85,0-1.54,0.7-1.54,1.57v2.56v0.2v0.03c-1.58-0.54-3.07-1.29-4.45-2.2h0.03c0,0,0,0,0,0h2.97v-0.6
		h-2.37H9.37H9.36c-0.7-0.51-1.38-1.07-2-1.67h5.85v-0.49v-0.1H6.85v-1.57h6.07h0.29h0.39v0.3h15.03v-0.3h0.39h6.36V41.39z
		 M1.45,31.47h5.11v0.69H1.62C1.56,31.93,1.51,31.7,1.45,31.47 M13.6,16.12l0.48-0.49v-1.57h0.19v0.79h6.84h6.84v-0.79h0.19v1.57
		l0.48,0.49v0.59H13.6V16.12z M42.25,26.77L42.23,0H0v27.19c0,0.19,0.02,0.49,0.02,0.49c0.39,11.55,9.68,20.8,21.09,20.8
		c11.57,0,20.98-9.48,21.13-21.25v-0.32C42.24,26.76,42.25,26.91,42.25,26.77"/>
	<rect x="24.68" y="15.04" class="st0" width="0.68" height="0.69"/>
	<rect x="22.08" y="15.04" class="st0" width="0.68" height="0.69"/>
	<rect x="22.94" y="15.04" class="st0" width="0.68" height="0.69"/>
	<path class="st0" d="M35.47,26.06v-0.2h-0.06c-0.79-0.96-1.98-1.57-3.31-1.57c-1.33,0-2.52,0.61-3.32,1.57h-0.06v0.39h6.74V26.06z"
		/>
</g>
</svg>
