<?xml version="1.0" encoding="utf-8"?>
<!-- Generator: Adobe Illustrator 25.0.0, SVG Export Plug-In . SVG Version: 6.00 Build 0)  -->
<svg version="1.1" id="Capa_1" xmlns="http://www.w3.org/2000/svg" xmlns:xlink="http://www.w3.org/1999/xlink" x="0px" y="0px"
	 viewBox="0 0 143.2 48.5" style="enable-background:new 0 0 143.2 48.5;" xml:space="preserve">
<style type="text/css">
	.st0{fill:#F5F5F2;}
</style>
<g>
	<path class="st0" d="M59.4,8v4.8c0,0.7,0.1,1.2,0.3,1.5c0.3,0.5,0.8,0.7,1.4,0.7c0.6,0,1.1-0.2,1.4-0.7c0.2-0.3,0.3-0.8,0.3-1.5V8
		h1.2v5.2c0,0.8-0.3,1.5-0.8,2.1c-0.6,0.6-1.3,0.9-2.2,0.9c-0.9,0-1.6-0.3-2.2-0.9c-0.5-0.6-0.8-1.2-0.8-2.1V8H59.4z"/>
	<polygon class="st0" points="66.1,16 66.1,7.4 71.9,13.6 71.9,8 73.1,8 73.1,16.5 67.3,10.4 67.3,16 	"/>
	<rect x="75.2" y="8" class="st0" width="1.2" height="8"/>
	<polygon class="st0" points="78.9,8 81.1,13.5 83.3,8 84.6,8 81.1,16.6 77.6,8 	"/>
	<polygon class="st0" points="90.2,9.1 87,9.1 87,11 90.1,11 90.1,12.2 87,12.2 87,14.9 90.2,14.9 90.2,16 85.8,16 85.8,8 90.2,8 	
		"/>
	<path class="st0" d="M93.1,11.7h0.4c1.1,0,1.7-0.4,1.7-1.3c0-0.8-0.6-1.2-1.7-1.2h-0.4C93.1,9.1,93.1,11.7,93.1,11.7z M94.6,12.6
		L97,16h-1.5l-2.3-3.3h-0.2V16h-1.2V8h1.4c1.1,0,1.8,0.2,2.3,0.6c0.5,0.4,0.8,1,0.8,1.8c0,0.6-0.2,1.1-0.5,1.5
		C95.5,12.2,95.1,12.5,94.6,12.6"/>
	<path class="st0" d="M102.9,9.2l-1,0.6c-0.2-0.3-0.4-0.5-0.5-0.6C101.2,9,101,9,100.8,9c-0.3,0-0.6,0.1-0.8,0.3s-0.3,0.4-0.3,0.7
		c0,0.4,0.3,0.7,0.9,0.9l0.8,0.3c0.6,0.3,1.1,0.6,1.4,1c0.3,0.4,0.4,0.8,0.4,1.4c0,0.7-0.2,1.4-0.7,1.8c-0.5,0.5-1.1,0.7-1.8,0.7
		c-0.7,0-1.3-0.2-1.7-0.6c-0.4-0.4-0.7-1-0.8-1.7l1.2-0.3c0.1,0.5,0.2,0.8,0.3,1c0.2,0.4,0.6,0.5,1.1,0.5c0.4,0,0.7-0.1,0.9-0.4
		c0.2-0.2,0.4-0.6,0.4-1c0-0.2,0-0.3-0.1-0.4s-0.1-0.2-0.2-0.4s-0.2-0.2-0.3-0.3c-0.1-0.1-0.3-0.2-0.5-0.3L100,12
		c-1.1-0.5-1.6-1.1-1.6-2c0-0.6,0.2-1.1,0.7-1.5c0.5-0.4,1-0.6,1.7-0.6C101.7,7.8,102.4,8.3,102.9,9.2"/>
	<rect x="104.7" y="8" class="st0" width="1.2" height="8"/>
	<path class="st0" d="M109.2,14.9h0.5c0.5,0,1-0.1,1.3-0.2c0.4-0.1,0.7-0.3,1-0.6c0.6-0.5,0.9-1.2,0.9-2.1c0-0.9-0.3-1.6-0.9-2.1
		c-0.5-0.5-1.3-0.7-2.3-0.7h-0.5V14.9z M108,16V8h1.7c0.8,0,1.4,0.1,1.9,0.2c0.5,0.2,0.9,0.4,1.4,0.8c0.8,0.8,1.2,1.8,1.2,3
		s-0.4,2.2-1.3,3c-0.4,0.4-0.9,0.6-1.3,0.8c-0.4,0.1-1.1,0.2-1.9,0.2L108,16L108,16z"/>
	<path class="st0" d="M119.6,12.9l-1.2-2.7l-1.2,2.7H119.6z M120.1,14.1h-3.4l-0.9,1.9h-1.3l3.9-8.5l3.8,8.5h-1.3L120.1,14.1z"/>
	<path class="st0" d="M124.6,14.9h0.5c0.5,0,1-0.1,1.3-0.2c0.4-0.1,0.7-0.3,1-0.6c0.6-0.5,0.9-1.2,0.9-2.1c0-0.9-0.3-1.6-0.9-2.1
		c-0.5-0.5-1.3-0.7-2.3-0.7h-0.5C124.6,9.1,124.6,14.9,124.6,14.9z M123.4,16V8h1.7c0.8,0,1.4,0.1,1.9,0.2c0.5,0.2,0.9,0.4,1.4,0.8
		c0.8,0.8,1.2,1.8,1.2,3s-0.4,2.2-1.3,3c-0.4,0.4-0.9,0.6-1.3,0.8c-0.4,0.1-1.1,0.2-1.9,0.2L123.4,16L123.4,16z"/>
	<path class="st0" d="M59.4,26.9h0.5c0.5,0,1-0.1,1.3-0.2c0.4-0.1,0.7-0.3,1-0.6c0.6-0.5,0.9-1.2,0.9-2.1c0-0.9-0.3-1.6-0.9-2.1
		c-0.5-0.5-1.3-0.7-2.3-0.7h-0.5L59.4,26.9L59.4,26.9z M58.2,28v-8h1.7c0.8,0,1.4,0.1,1.9,0.2c0.5,0.2,1,0.4,1.4,0.8
		c0.8,0.8,1.2,1.8,1.2,3c0,1.2-0.4,2.2-1.3,3c-0.4,0.4-0.9,0.6-1.3,0.8C61.3,28,60.6,28,59.8,28L58.2,28L58.2,28z"/>
	<polygon class="st0" points="70.2,21.2 67,21.2 67,23.1 70.1,23.1 70.1,24.2 67,24.2 67,26.9 70.2,26.9 70.2,28 65.8,28 65.8,20 
		70.2,20 	"/>
	<polygon class="st0" points="75.3,20 75.3,26.9 77.7,26.9 77.7,28 74.1,28 74.1,20 	"/>
	<path class="st0" d="M83.4,25l-1.2-2.7L81,25H83.4z M83.9,26.1h-3.4l-0.9,2h-1.3l3.9-8.5l3.8,8.5h-1.3L83.9,26.1z"/>
	<path class="st0" d="M90.1,23.7h0.4c1.1,0,1.7-0.4,1.7-1.3c0-0.8-0.6-1.2-1.7-1.2h-0.4V23.7z M91.6,24.6l2.5,3.4h-1.5l-2.3-3.3
		h-0.2V28h-1.2v-8h1.4c1.1,0,1.8,0.2,2.3,0.6c0.5,0.4,0.8,1,0.8,1.8c0,0.6-0.2,1-0.5,1.5C92.6,24.3,92.1,24.5,91.6,24.6"/>
	<polygon class="st0" points="99.7,21.2 96.5,21.2 96.5,23.1 99.6,23.1 99.6,24.2 96.5,24.2 96.5,26.9 99.7,26.9 99.7,28 95.3,28 
		95.3,20 99.7,20 	"/>
	<path class="st0" d="M102.4,23.7h0.4c1.1,0,1.7-0.4,1.7-1.3c0-0.8-0.6-1.2-1.7-1.2h-0.4L102.4,23.7L102.4,23.7z M102.4,24.8v3.3
		h-1.2v-8h1.4c0.7,0,1.2,0,1.5,0.1c0.3,0.1,0.7,0.3,0.9,0.5c0.5,0.5,0.7,1,0.7,1.7c0,0.7-0.2,1.3-0.7,1.8c-0.5,0.4-1.2,0.6-2,0.6
		H102.4z"/>
	<path class="st0" d="M111.7,17.9l-2.1,1.4l-0.6-0.5l1.7-1.7L111.7,17.9z M108.1,20v4.8c0,0.7,0.1,1.2,0.3,1.5
		c0.3,0.5,0.8,0.7,1.4,0.7s1.1-0.2,1.4-0.7c0.2-0.3,0.3-0.8,0.3-1.5V20h1.2v5.2c0,0.8-0.3,1.5-0.8,2.1c-0.6,0.6-1.3,0.9-2.2,0.9
		c-0.9,0-1.6-0.3-2.2-0.9c-0.5-0.5-0.8-1.2-0.8-2.1V20H108.1z"/>
	<path class="st0" d="M115.9,26.9h0.7c0.5,0,0.9-0.1,1.2-0.3c0.3-0.2,0.4-0.5,0.4-0.9c0-0.4-0.1-0.6-0.4-0.9
		c-0.2-0.2-0.7-0.4-1.3-0.4h-0.6V26.9z M115.9,23.5h0.4c0.4,0,0.8-0.1,1-0.3c0.2-0.2,0.3-0.5,0.3-0.9c0-0.4-0.1-0.7-0.3-0.9
		s-0.5-0.3-0.9-0.3h-0.4V23.5z M114.7,28v-8h1.2c0.5,0,1,0,1.3,0.1c0.3,0.1,0.6,0.2,0.8,0.4s0.4,0.5,0.5,0.8
		c0.1,0.3,0.2,0.6,0.2,0.9c0,0.6-0.2,1.1-0.7,1.5c0.4,0.1,0.8,0.4,1,0.8s0.4,0.8,0.4,1.3c0,0.6-0.2,1.2-0.7,1.6
		c-0.3,0.3-0.6,0.5-0.9,0.6c-0.4,0.1-0.8,0.1-1.4,0.1L114.7,28L114.7,28z"/>
	<polygon class="st0" points="122.2,20 122.2,26.9 124.5,26.9 124.5,28 121,28 121,20 	"/>
	<rect x="125.6" y="20" class="st0" width="1.2" height="8"/>
	<path class="st0" d="M134.6,20.3v1.4c-0.7-0.6-1.4-0.9-2.1-0.9c-0.8,0-1.5,0.3-2.1,0.9c-0.6,0.6-0.9,1.3-0.9,2.2
		c0,0.8,0.3,1.5,0.9,2.1c0.6,0.6,1.3,0.9,2.1,0.9c0.4,0,0.8-0.1,1.1-0.2c0.2-0.1,0.3-0.2,0.5-0.3c0.2-0.1,0.4-0.3,0.6-0.4v1.5
		c-0.7,0.4-1.4,0.6-2.2,0.6c-1.1,0-2.1-0.4-2.9-1.2c-0.8-0.8-1.2-1.8-1.2-2.9c0-1,0.3-1.9,1-2.7c0.8-1,1.9-1.5,3.2-1.5
		C133.3,19.7,134,19.9,134.6,20.3"/>
	<path class="st0" d="M140.5,24.8l-1.2-2.7l-1.2,2.7H140.5z M141,26h-3.4l-0.9,2h-1.3l3.9-8.5l3.8,8.5h-1.3L141,26z"/>
	<path class="st0" d="M59.4,32.1v4.8c0,0.7,0.1,1.2,0.3,1.5c0.3,0.5,0.8,0.7,1.4,0.7c0.6,0,1.1-0.2,1.4-0.7c0.2-0.3,0.3-0.8,0.3-1.5
		v-4.8h1.2v5.2c0,0.8-0.3,1.5-0.8,2.1c-0.6,0.6-1.3,0.9-2.2,0.9c-0.9,0-1.6-0.3-2.2-0.9c-0.5-0.5-0.8-1.2-0.8-2.1v-5.2H59.4z"/>
	<path class="st0" d="M67.5,35.8h0.4c1.1,0,1.7-0.4,1.7-1.3c0-0.8-0.6-1.2-1.7-1.2h-0.4C67.5,33.2,67.5,35.8,67.5,35.8z M69,36.7
		l2.5,3.4H70l-2.3-3.3h-0.2v3.3h-1.2v-8h1.4c1.1,0,1.8,0.2,2.3,0.6c0.5,0.4,0.8,1,0.8,1.8c0,0.6-0.2,1.1-0.5,1.5
		C69.9,36.3,69.5,36.6,69,36.7"/>
	<path class="st0" d="M74,32.1v4.8c0,0.7,0.1,1.2,0.3,1.5c0.3,0.5,0.8,0.7,1.4,0.7s1.1-0.2,1.4-0.7c0.2-0.3,0.3-0.8,0.3-1.5v-4.8
		h1.2v5.2c0,0.8-0.3,1.5-0.8,2.1c-0.6,0.6-1.3,0.9-2.2,0.9c-0.9,0-1.6-0.3-2.2-0.9c-0.5-0.5-0.8-1.2-0.8-2.1v-5.2H74z"/>
	<path class="st0" d="M85.1,35.9h3.3v0.3c0,0.6-0.1,1.1-0.2,1.6c-0.1,0.4-0.4,0.8-0.7,1.2c-0.7,0.8-1.7,1.3-2.8,1.3
		c-1.1,0-2.1-0.4-2.9-1.2c-0.8-0.8-1.2-1.8-1.2-2.9c0-1.2,0.4-2.2,1.2-3c0.8-0.8,1.8-1.2,2.9-1.2c0.6,0,1.2,0.1,1.7,0.4
		c0.5,0.2,1,0.7,1.5,1.2l-0.9,0.8c-0.7-0.9-1.4-1.3-2.4-1.3c-0.8,0-1.6,0.3-2.1,0.9c-0.6,0.6-0.9,1.3-0.9,2.2c0,0.9,0.3,1.6,1,2.2
		c0.6,0.5,1.2,0.8,1.9,0.8c0.6,0,1.1-0.2,1.6-0.6c0.5-0.4,0.7-0.9,0.8-1.5h-2L85.1,35.9L85.1,35.9z"/>
	<path class="st0" d="M91.4,32.1v4.8c0,0.7,0.1,1.2,0.3,1.5c0.3,0.5,0.8,0.7,1.4,0.7s1.1-0.2,1.4-0.7c0.2-0.3,0.3-0.8,0.3-1.5v-4.8
		h1.2v5.2c0,0.8-0.3,1.5-0.8,2.1c-0.6,0.6-1.3,0.9-2.2,0.9s-1.6-0.3-2.2-0.9c-0.5-0.5-0.8-1.2-0.8-2.1v-5.2H91.4z"/>
	<path class="st0" d="M102.1,37l-1.2-2.7L99.7,37H102.1z M102.6,38.2h-3.4l-0.9,2H97l3.9-8.5l3.8,8.5h-1.3L102.6,38.2z"/>
	<polygon class="st0" points="107,36.6 104.4,32.1 105.8,32.1 107.6,35.3 109.4,32.1 110.8,32.1 108.2,36.6 108.2,40.1 107,40.1 	
		"/>
	<polygon class="st0" points="13.6,45.2 13.6,45.3 13.6,45.6 14.2,45.6 14.2,45.3 14.2,45.2 	"/>
	<rect x="13.6" y="44" class="st0" width="0.6" height="0.4"/>
	<polygon class="st0" points="16.2,40.8 15.7,40.8 16,41.9 16.2,42 16.4,41.9 16.7,40.8 	"/>
	<rect x="18.2" y="46.5" class="st0" width="0.9" height="0.4"/>
	<rect x="18.2" y="45.2" class="st0" width="0.9" height="0.4"/>
	<rect x="18.2" y="44" class="st0" width="0.9" height="0.4"/>
	<polygon class="st0" points="21.1,40.8 20.6,40.8 20.9,41.9 21.1,42 21.4,41.9 21.6,40.8 	"/>
	<rect x="23.1" y="46.5" class="st0" width="0.9" height="0.4"/>
	<rect x="23.1" y="45.2" class="st0" width="0.9" height="0.4"/>
	<rect x="23.1" y="44" class="st0" width="0.9" height="0.4"/>
	<polygon class="st0" points="26,40.8 25.6,40.8 25.8,41.9 26,42 26.3,41.9 26.5,40.8 	"/>
	<polygon class="st0" points="28,45.2 28,45.3 28,45.6 28.6,45.6 28.6,45.3 28.6,45.2 	"/>
	<rect x="28" y="44" class="st0" width="0.6" height="0.4"/>
	<rect x="33.5" y="36.2" class="st0" width="1.2" height="0.2"/>
	<rect x="33.5" y="37.5" class="st0" width="1.2" height="0.2"/>
	<rect x="33.5" y="34.9" class="st0" width="1.2" height="0.2"/>
	<rect x="33.5" y="33.6" class="st0" width="1.2" height="0.2"/>
	<rect x="33.5" y="32.3" class="st0" width="1.2" height="0.2"/>
	<rect x="33.5" y="31.1" class="st0" width="1.2" height="0.2"/>
	<rect x="31.1" y="32.3" class="st0" width="1.9" height="5.3"/>
	<rect x="29.4" y="36.2" class="st0" width="1.2" height="0.2"/>
	<rect x="29.4" y="37.5" class="st0" width="1.2" height="0.2"/>
	<rect x="29.4" y="34.9" class="st0" width="1.2" height="0.2"/>
	<rect x="29.4" y="33.6" class="st0" width="1.2" height="0.2"/>
	<rect x="29.4" y="32.3" class="st0" width="1.2" height="0.2"/>
	<rect x="29.4" y="31.1" class="st0" width="1.2" height="0.2"/>
	<rect x="24.5" y="38.3" class="st0" width="3.1" height="0.6"/>
	<rect x="25.1" y="32.9" class="st0" width="1.9" height="5.1"/>
	<polygon class="st0" points="19.6,38.3 19.6,38.9 22.7,38.9 22.7,38.3 21.1,38.3 	"/>
	<polygon class="st0" points="22.1,38 22.1,32.9 21.1,32.9 20.1,32.9 20.1,38 21.1,38 	"/>
	<rect x="14.7" y="38.3" class="st0" width="3.1" height="0.6"/>
	<rect x="15.2" y="32.9" class="st0" width="1.9" height="5.1"/>
	<rect x="11.6" y="36.2" class="st0" width="1.2" height="0.2"/>
	<rect x="11.6" y="37.5" class="st0" width="1.2" height="0.2"/>
	<rect x="11.6" y="34.9" class="st0" width="1.2" height="0.2"/>
	<rect x="11.6" y="33.6" class="st0" width="1.2" height="0.2"/>
	<rect x="11.6" y="32.3" class="st0" width="1.2" height="0.2"/>
	<rect x="11.6" y="31.1" class="st0" width="1.2" height="0.2"/>
	<rect x="9.2" y="32.3" class="st0" width="1.9" height="5.3"/>
	<rect x="7.4" y="34.9" class="st0" width="1.3" height="0.2"/>
	<rect x="7.4" y="36.2" class="st0" width="1.3" height="0.2"/>
	<rect x="7.4" y="33.6" class="st0" width="1.3" height="0.2"/>
	<rect x="7.4" y="32.3" class="st0" width="1.3" height="0.2"/>
	<rect x="7.4" y="31.1" class="st0" width="1.3" height="0.2"/>
	<rect x="7.4" y="37.5" class="st0" width="1.3" height="0.2"/>
	<path class="st0" d="M16.1,21.5c0.6,0,1.1-0.5,1.1-1.1s-0.5-1.1-1.1-1.1c-0.6,0-1.1,0.5-1.1,1.1C15.1,21,15.6,21.5,16.1,21.5"/>
	<path class="st0" d="M21.1,21.5c0.6,0,1.1-0.5,1.1-1.1s-0.5-1.1-1.1-1.1c-0.6,0-1.1,0.5-1.1,1.1C20,21,20.5,21.5,21.1,21.5"/>
	<path class="st0" d="M26.1,21.5c0.6,0,1.1-0.5,1.1-1.1s-0.5-1.1-1.1-1.1S25,19.9,25,20.5C25,21,25.5,21.5,26.1,21.5"/>
	<path class="st0" d="M13.5,25.9L13.5,25.9c-0.9-1-2.1-1.6-3.4-1.6s-2.5,0.6-3.3,1.6h0v0.4h6.8L13.5,25.9L13.5,25.9z"/>
	<polygon class="st0" points="28.6,23.5 28.6,22.9 21.1,22.9 13.6,22.9 13.6,23.5 21.1,23.5 	"/>
	<polygon class="st0" points="14.7,25.2 21.1,25.2 27.6,25.2 27.6,24.7 28.6,24.7 28.6,24.2 13.6,24.2 13.6,24.7 14.7,24.7 	"/>
	<rect x="14.7" y="25.9" class="st0" width="12.9" height="0.4"/>
	<polygon class="st0" points="29.4,27 12.8,27 12.8,26.5 7.4,26.5 7.4,27 7.4,27.4 7.4,27.7 13.6,27.7 13.6,28.4 28.6,28.4 
		28.6,27.7 34.8,27.7 34.8,27.4 34.8,27 34.8,26.5 29.4,26.5 	"/>
	<path class="st0" d="M7.4,29.5H9v0.9h0.2c0.2,0.3,0.6,0.5,0.9,0.5c0.4,0,0.7-0.2,0.9-0.5h0.2v-0.9h1.5v-0.8H7.4V29.5z"/>
	<path class="st0" d="M29.4,29.5h1.5v0.9h0.2c0.2,0.3,0.5,0.5,0.9,0.5c0.4,0,0.7-0.2,0.9-0.5h0.2v-0.9h1.5v-0.8h-5.4V29.5z"/>
	<path class="st0" d="M13.6,30.2h1.9c-0.1,0.1-0.1,0.1-0.1,0.2h-0.7v1.1h0.8c0.2,0.2,0.5,0.4,0.8,0.4c0.3,0,0.6-0.2,0.8-0.4h0.8
		v-1.1H17c0-0.1-0.1-0.1-0.1-0.2h2.8c0.2-0.5,0.8-0.9,1.4-0.9h-7.5V30.2z M16.2,30.2c0.4,0,0.7,0.3,0.7,0.7s-0.3,0.7-0.7,0.7
		c-0.4,0-0.7-0.3-0.7-0.7C15.5,30.5,15.8,30.2,16.2,30.2"/>
	<path class="st0" d="M22.5,30.2h2.8c-0.1,0.1-0.1,0.1-0.1,0.2h-0.7v1.1h0.8c0.2,0.2,0.5,0.4,0.8,0.4c0.3,0,0.6-0.2,0.8-0.4h0.8
		v-1.1h-0.7c0-0.1-0.1-0.1-0.1-0.2h1.9v-0.9h-7.5C21.7,29.3,22.2,29.7,22.5,30.2 M26,30.2c0.4,0,0.7,0.3,0.7,0.7s-0.3,0.7-0.7,0.7
		c-0.4,0-0.7-0.3-0.7-0.7S25.6,30.2,26,30.2"/>
	<path class="st0" d="M19.2,30.4v1.1h0.5c-0.1-0.2-0.1-0.4-0.1-0.6c0-0.2,0-0.3,0.1-0.5H19.2z"/>
	<path class="st0" d="M22.7,30.9c0,0.2,0,0.4-0.1,0.6H23v-1.1h-0.5C22.6,30.5,22.7,30.7,22.7,30.9"/>
	<path class="st0" d="M22.1,30.9c0-0.3-0.1-0.5-0.3-0.7l-0.6,0.8c0,0,0,0,0,0l0,0c0,0,0,0,0,0s0,0,0,0c0,0-0.1,0-0.1,0c0,0,0,0,0,0
		l-0.3-0.5l0.4,0.3l0.7-0.5c-0.2-0.2-0.4-0.3-0.7-0.3c-0.5,0-1,0.4-1,1c0,0.5,0.4,1,1,1C21.6,31.9,22.1,31.4,22.1,30.9"/>
	<polygon class="st0" points="14.7,32 14.7,32.5 17.7,32.5 17.7,32.2 17.7,32 	"/>
	<path class="st0" d="M21.1,32.5c-0.4,0-0.7-0.2-1-0.4h-0.5v0.5h1.5h1.5v-0.5h-0.5C21.9,32.3,21.5,32.5,21.1,32.5"/>
	<rect x="24.5" y="32" class="st0" width="3.1" height="0.5"/>
	<path class="st0" d="M15.7,41.5l-0.1-0.4c-1.2,0.3-2,1.3-2,2.6h0.3H14h0.2h0.1h0.1c0-0.9,0.6-1.6,1.4-1.8l0-0.2L15.7,41.5z"/>
	<path class="st0" d="M20.6,41.2l0-0.2c-0.9,0.2-1.6,0.9-1.9,1.7c-0.3-0.9-1-1.5-1.9-1.7l0,0.2l-0.1,0.6c0.8,0.2,1.4,0.9,1.4,1.8
		h0.1h0.1h0.2h0.1h0.3h0.1h0.2h0.1h0.1c0-0.9,0.6-1.6,1.4-1.8l0,0L20.6,41.2L20.6,41.2z"/>
	<path class="st0" d="M25.5,41.1c-0.9,0.2-1.6,0.9-1.9,1.7c-0.3-0.9-1-1.5-1.9-1.7l0,0.2l-0.1,0.6c0.8,0.2,1.4,0.9,1.4,1.8H23h0.1
		h0.2h0.1h0.3h0.1H24h0.1h0.1c0-0.9,0.6-1.6,1.4-1.8l-0.1-0.6L25.5,41.1z"/>
	<path class="st0" d="M26.6,41.1l0,0.2l-0.1,0.6c0.8,0.2,1.4,0.9,1.4,1.8H28h0.1h0.2h0.1h0.3C28.6,42.4,27.8,41.3,26.6,41.1"/>
	<path class="st0" d="M18.1,46.1C18.1,46.1,18.1,46.1,18.1,46.1C18.1,46.1,18.1,46.2,18.1,46.1C18.2,46.2,18.2,46.1,18.1,46.1
		C18.2,46.1,18.1,46.1,18.1,46.1"/>
	<path class="st0" d="M18.4,46.2C18.4,46.1,18.4,46.1,18.4,46.2C18.3,46.1,18.3,46.1,18.4,46.2C18.3,46.2,18.3,46.2,18.4,46.2
		C18.4,46.2,18.4,46.2,18.4,46.2"/>
	<path class="st0" d="M18.7,46C18.7,46,18.7,45.9,18.7,46C18.6,45.9,18.6,45.9,18.7,46C18.6,46,18.6,46,18.7,46
		C18.7,46,18.7,46,18.7,46"/>
	<rect x="17.7" y="15" class="st0" width="0.7" height="0.7"/>
	<rect x="18.6" y="15" class="st0" width="0.7" height="0.7"/>
	<rect x="20.3" y="15" class="st0" width="0.7" height="0.7"/>
	<rect x="21.2" y="15" class="st0" width="0.7" height="0.7"/>
	<rect x="19.5" y="15" class="st0" width="0.7" height="0.7"/>
	<rect x="16.9" y="15" class="st0" width="0.7" height="0.7"/>
	<rect x="14.3" y="15" class="st0" width="0.7" height="0.7"/>
	<rect x="15.1" y="15" class="st0" width="0.7" height="0.7"/>
	<rect x="16" y="15" class="st0" width="0.7" height="0.7"/>
	<rect x="27.3" y="15" class="st0" width="0.7" height="0.7"/>
	<rect x="26.4" y="15" class="st0" width="0.7" height="0.7"/>
	<rect x="25.5" y="15" class="st0" width="0.7" height="0.7"/>
	<path class="st0" d="M41.2,29.1h-5.8v0.4h5.7c0,0.2-0.1,0.5-0.1,0.7h-5.3h-0.3v1.1v0.2v0.2v0.5v0.3V38h0.3v-5.6h4.9
		c-0.1,0.3-0.2,0.7-0.3,1h-1.1v2.7c-0.2,0.5-0.5,1-0.8,1.4v-4.2h-1.7V38h1.5c-0.3,0.5-0.7,1-1,1.5h-1.7v-0.6H29v0.2v0.1v0.1h-0.8
		H13.7h-0.1h-0.4v-0.1v-0.2v-0.1H6.8v0.6H5.2c-0.4-0.5-0.7-1-1-1.5h1.4v-4.6H3.9v4.2c-0.3-0.5-0.5-1-0.8-1.4v-2.7H2
		c-0.1-0.3-0.2-0.7-0.3-1h4.9v5.6h0.3v-5.6v-0.3v-0.5v-0.2v-0.2v-1.1H6.6H1.2c0-0.2-0.1-0.5-0.1-0.7h5.7v-0.4H1.1
		c0-0.3,0-0.5-0.1-0.8h0.4h5.4v-1.8H6.1v-0.9h0.5c0.2-0.3,0.5-0.6,0.8-0.8v-1.4H9c0.3,0.2,0.7,0.3,1.1,0.3s0.8-0.1,1.1-0.3h1.5h0.6
		v-0.6H12v-0.3H8.3v0.3H6.8v-1v-0.1h0.6c0.1-2.5,2.7-4.5,6-4.5c0,0,0,0,0.1,0c0,0,0.1,0,0.1,0h7.5h7.5c0,0,0,0,0.1,0c0,0,0,0,0.1,0
		c3.3,0,6,2,6,4.5h0.6v1.1h-1.5v-0.3h-3.7v0.3h-1.5v0.6h2.1c0.3,0.2,0.7,0.3,1.2,0.3c0.4,0,0.8-0.1,1.2-0.3h1.5v1.4
		c0.3,0.2,0.6,0.5,0.8,0.8h0.5v0.9h-0.8v1.8h5.4h0.4C41.2,28.6,41.2,28.9,41.2,29.1 M40.6,32.2h-5v-0.7h5.1
		C40.7,31.7,40.7,31.9,40.6,32.2 M35.4,41.4H29h0V42h5.9c-0.6,0.6-1.3,1.2-2,1.7h0h-1.4H29v0.6h2.5H32h0c-1.4,0.9-2.9,1.7-4.4,2.2v0
		v0v-2.7c0-0.9-0.7-1.6-1.5-1.6c-0.9,0-1.5,0.7-1.5,1.6v2.7v0.8v0c-0.6,0.1-1.2,0.2-1.8,0.2v0v-0.6v-3.2c0-0.9-0.7-1.6-1.5-1.6
		c-0.9,0-1.5,0.7-1.5,1.6v3.2v0.6v0c-0.6,0-1.2-0.1-1.8-0.2v0v-1v-2.6c0-0.9-0.7-1.6-1.5-1.6c-0.9,0-1.5,0.7-1.5,1.6v2.6v0.2v0
		c-1.6-0.5-3.1-1.3-4.4-2.2h0l0,0h3v-0.6h-2.4H9.4h0c-0.7-0.5-1.4-1.1-2-1.7h5.8v-0.5v-0.1H6.8v-1.6h6.1h0.3h0.4v0.3h15v-0.3H29h6.4
		V41.4z M1.5,31.5h5.1v0.7H1.6C1.6,31.9,1.5,31.7,1.5,31.5 M13.6,16.1l0.5-0.5v-1.6h0.2v0.8h6.8H28v-0.8h0.2v1.6l0.5,0.5v0.6h-15
		V16.1z M42.2,26.8l0-26.8H0v27.2c0,0.2,0,0.5,0,0.5c0.4,11.5,9.7,20.8,21.1,20.8c11.6,0,21-9.5,21.1-21.2v-0.3
		C42.2,26.8,42.2,26.9,42.2,26.8"/>
	<rect x="24.7" y="15" class="st0" width="0.7" height="0.7"/>
	<rect x="22.1" y="15" class="st0" width="0.7" height="0.7"/>
	<rect x="22.9" y="15" class="st0" width="0.7" height="0.7"/>
	<path class="st0" d="M35.5,26.1v-0.2h-0.1c-0.8-1-2-1.6-3.3-1.6c-1.3,0-2.5,0.6-3.3,1.6h-0.1v0.4h6.7L35.5,26.1L35.5,26.1z"/>
</g>
</svg>
