<?xml version="1.0" encoding="utf-8"?>
<!-- Generator: Adobe Illustrator 25.0.0, SVG Export Plug-In . SVG Version: 6.00 Build 0)  -->
<svg version="1.1" id="Capa_1" xmlns="http://www.w3.org/2000/svg" xmlns:xlink="http://www.w3.org/1999/xlink" x="0px" y="0px"
	 viewBox="0 0 108.7 48.4" style="enable-background:new 0 0 108.7 48.4;" xml:space="preserve">
<style type="text/css">
	.st0{fill:#F5F5F2;}
</style>
<g>
	<path class="st0" d="M22.5,2.1v5.1C20,5.1,17.4,4,14.8,4c-2.9,0-5.4,1.1-7.4,3.2c-2,2.1-3,4.7-3,7.7c0,3,1,5.5,3,7.6
		c2,2.1,4.5,3.1,7.4,3.1c1.5,0,2.8-0.2,3.9-0.7c0.6-0.2,1.2-0.6,1.8-1c0.6-0.4,1.3-0.9,2-1.5v5.2c-2.5,1.4-5.1,2.1-7.8,2.1
		c-4.1,0-7.6-1.4-10.4-4.3C1.4,22.5,0,19,0,14.9c0-3.6,1.2-6.9,3.6-9.7C6.6,1.7,10.4,0,15.1,0C17.6,0,20.1,0.7,22.5,2.1z"/>
	<path class="st0" d="M42.1,4.8l-3.5,2.1C38,5.7,37.4,5,36.8,4.6C36.1,4.2,35.3,4,34.4,4c-1.2,0-2.2,0.3-3,1
		c-0.8,0.7-1.2,1.5-1.2,2.5c0,1.4,1,2.5,3.1,3.4l2.8,1.2c2.3,0.9,4,2.1,5.1,3.4s1.6,3,1.6,5c0,2.6-0.9,4.8-2.6,6.5
		c-1.8,1.7-4,2.6-6.6,2.6c-2.5,0-4.5-0.7-6.1-2.2c-1.6-1.5-2.6-3.5-3-6.2l4.4-1c0.2,1.7,0.5,2.8,1,3.5c0.9,1.2,2.2,1.9,3.9,1.9
		c1.3,0,2.5-0.5,3.3-1.4c0.9-0.9,1.3-2,1.3-3.4c0-0.5-0.1-1.1-0.2-1.5c-0.2-0.5-0.4-0.9-0.7-1.3c-0.3-0.4-0.8-0.8-1.3-1.1
		c-0.5-0.3-1.1-0.7-1.8-1l-2.8-1.1c-3.9-1.6-5.9-4.1-5.9-7.2c0-2.1,0.8-3.9,2.5-5.4C30,0.7,32,0,34.4,0C37.7,0,40.3,1.6,42.1,4.8z"
		/>
	<path class="st0" d="M50.1,0.6v28.5h-4.3V0.6H50.1z"/>
	<path class="st0" d="M74.8,2.1v5.1c-2.5-2.1-5.1-3.1-7.7-3.1c-2.9,0-5.4,1.1-7.4,3.2c-2,2.1-3,4.7-3,7.7c0,3,1,5.5,3,7.6
		c2,2.1,4.5,3.1,7.4,3.1c1.5,0,2.8-0.2,3.9-0.7c0.6-0.2,1.2-0.6,1.8-1c0.6-0.4,1.3-0.9,2-1.5v5.2c-2.5,1.4-5.1,2.1-7.8,2.1
		c-4.1,0-7.5-1.4-10.4-4.3c-2.9-2.9-4.3-6.3-4.3-10.4c0-3.6,1.2-6.9,3.6-9.7C58.9,1.7,62.7,0,67.4,0C69.9,0,72.4,0.7,74.8,2.1z"/>
	<path class="st0" d="M108.7,14.1H96.5c-0.8,0-1.4-0.6-1.4-1.4V6.2c0-3,2.5-5.6,5.8-5.6h6.3c0.8,0,1.4,0.6,1.4,1.4L108.7,14.1
		L108.7,14.1z"/>
	<path class="st0" d="M80.2,15.5h12.1c0.8,0,1.4,0.6,1.4,1.4v6.6c0,3-2.5,5.6-5.8,5.6h-6.3c-0.8,0-1.4-0.6-1.4-1.4V15.5z"/>
	<path class="st0" d="M93.7,0.6v12.1c0,0.8-0.6,1.4-1.4,1.4h-6.6c-3,0-5.6-2.5-5.6-5.8V2c0-0.8,0.6-1.4,1.4-1.4
		C81.6,0.6,93.7,0.6,93.7,0.6z"/>
	<path class="st0" d="M95.1,29.1V16.9c0-0.8,0.6-1.4,1.4-1.4h6.6c3,0,5.6,2.5,5.6,5.8v6.4c0,0.8-0.6,1.4-1.4,1.4
		C107.3,29.1,95.1,29.1,95.1,29.1z"/>
	<g>
		<g>
			<path class="st0" d="M6.1,34.8v1c-0.5-0.4-1-0.6-1.6-0.6c-0.6,0-1.1,0.2-1.5,0.7s-0.6,1-0.6,1.6C2.4,38,2.6,38.5,3,39
				s0.9,0.6,1.5,0.6c0.3,0,0.6,0,0.8-0.2c0.1,0,0.2-0.1,0.4-0.2c0.1-0.1,0.3-0.2,0.4-0.3V40c-0.5,0.3-1,0.4-1.6,0.4
				c-0.8,0-1.5-0.3-2.1-0.9c-0.6-0.6-0.9-1.3-0.9-2.1c0-0.7,0.2-1.4,0.7-2c0.6-0.7,1.4-1.1,2.3-1.1C5.1,34.4,5.6,34.5,6.1,34.8z"/>
			<path class="st0" d="M7.3,37.4c0-0.8,0.3-1.5,0.9-2.1c0.6-0.6,1.3-0.9,2.2-0.9c0.8,0,1.5,0.3,2.1,0.9s0.9,1.3,0.9,2.1
				c0,0.8-0.3,1.5-0.9,2.1c-0.6,0.6-1.3,0.9-2.2,0.9c-0.8,0-1.4-0.3-2-0.8C7.7,39,7.3,38.3,7.3,37.4z M8.2,37.4
				c0,0.6,0.2,1.2,0.6,1.6c0.4,0.4,0.9,0.6,1.5,0.6c0.6,0,1.1-0.2,1.6-0.6c0.4-0.4,0.6-1,0.6-1.6c0-0.6-0.2-1.1-0.6-1.6
				c-0.4-0.4-0.9-0.6-1.5-0.6s-1.1,0.2-1.5,0.6C8.4,36.2,8.2,36.8,8.2,37.4z"/>
			<path class="st0" d="M14.9,40.3l1.2-6.3l2,4.5l2.1-4.5l1.1,6.3h-0.9l-0.6-3.5l-1.7,3.8l-1.7-3.8l-0.6,3.5H14.9z"/>
			<path class="st0" d="M23.9,34.5v5.8H23v-5.8H23.9z"/>
			<path class="st0" d="M29.1,35.3l-0.7,0.4c-0.1-0.2-0.3-0.4-0.4-0.5c-0.1-0.1-0.3-0.1-0.5-0.1c-0.2,0-0.5,0.1-0.6,0.2
				s-0.2,0.3-0.2,0.5c0,0.3,0.2,0.5,0.6,0.7l0.6,0.2c0.5,0.2,0.8,0.4,1,0.7c0.2,0.3,0.3,0.6,0.3,1c0,0.5-0.2,1-0.5,1.3
				c-0.4,0.3-0.8,0.5-1.3,0.5c-0.5,0-0.9-0.2-1.2-0.5c-0.3-0.3-0.5-0.7-0.6-1.3l0.9-0.2c0,0.3,0.1,0.6,0.2,0.7
				c0.2,0.2,0.5,0.4,0.8,0.4c0.3,0,0.5-0.1,0.7-0.3c0.2-0.2,0.3-0.4,0.3-0.7c0-0.1,0-0.2,0-0.3c0-0.1-0.1-0.2-0.1-0.3
				c-0.1-0.1-0.1-0.2-0.3-0.2s-0.2-0.1-0.4-0.2l-0.6-0.2c-0.8-0.3-1.2-0.8-1.2-1.5c0-0.4,0.2-0.8,0.5-1.1s0.8-0.5,1.2-0.5
				C28.2,34.4,28.7,34.7,29.1,35.3z"/>
			<path class="st0" d="M31.7,34.5v5.8h-0.9v-5.8H31.7z"/>
			<path class="st0" d="M33.3,37.4c0-0.8,0.3-1.5,0.9-2.1c0.6-0.6,1.3-0.9,2.2-0.9c0.8,0,1.5,0.3,2.1,0.9s0.9,1.3,0.9,2.1
				c0,0.8-0.3,1.5-0.9,2.1c-0.6,0.6-1.3,0.9-2.2,0.9c-0.8,0-1.4-0.3-2-0.8C33.6,39,33.3,38.3,33.3,37.4z M34.2,37.4
				c0,0.6,0.2,1.2,0.7,1.6c0.4,0.4,0.9,0.6,1.5,0.6c0.6,0,1.1-0.2,1.5-0.6c0.4-0.4,0.6-1,0.6-1.6c0-0.6-0.2-1.1-0.6-1.6
				c-0.4-0.4-0.9-0.6-1.5-0.6s-1.1,0.2-1.5,0.6C34.4,36.2,34.2,36.8,34.2,37.4z M37.7,32.9l-1.5,1l-0.4-0.3l1.2-1.2L37.7,32.9z"/>
			<path class="st0" d="M41,40.3v-6.2l4.2,4.5v-4h0.9v6.2l-4.2-4.4v4.1C41.9,40.3,41,40.3,41,40.3z"/>
			<path class="st0" d="M54.2,35.3l-0.7,0.4c-0.1-0.2-0.3-0.4-0.4-0.5c-0.1-0.1-0.3-0.1-0.5-0.1c-0.2,0-0.5,0.1-0.6,0.2
				s-0.2,0.3-0.2,0.5c0,0.3,0.2,0.5,0.6,0.7l0.6,0.2c0.5,0.2,0.8,0.4,1,0.7c0.2,0.3,0.3,0.6,0.3,1c0,0.5-0.2,1-0.5,1.3
				c-0.4,0.3-0.8,0.5-1.3,0.5c-0.5,0-0.9-0.2-1.2-0.5c-0.3-0.3-0.5-0.7-0.6-1.3l0.9-0.2c0,0.3,0.1,0.6,0.2,0.7
				c0.2,0.2,0.5,0.4,0.8,0.4c0.3,0,0.5-0.1,0.7-0.3c0.2-0.2,0.3-0.4,0.3-0.7c0-0.1,0-0.2,0-0.3s-0.1-0.2-0.2-0.3
				c-0.1-0.1-0.2-0.2-0.3-0.2c-0.1-0.1-0.2-0.1-0.4-0.2L52,37.4c-0.8-0.3-1.2-0.8-1.2-1.5c0-0.4,0.2-0.8,0.5-1.1s0.8-0.5,1.2-0.5
				C53.3,34.4,53.8,34.7,54.2,35.3z"/>
			<path class="st0" d="M59.1,35.3h-2.3v1.4h2.3v0.8h-2.3v2h2.3v0.8h-3.2v-5.8h3.2V35.3z"/>
			<path class="st0" d="M65.1,34.8v1c-0.5-0.4-1-0.6-1.6-0.6c-0.6,0-1.1,0.2-1.5,0.7s-0.6,1-0.6,1.6c0,0.6,0.2,1.1,0.6,1.5
				s0.9,0.6,1.5,0.6c0.3,0,0.6,0,0.8-0.2c0.1,0,0.2-0.1,0.4-0.2c0.1-0.1,0.3-0.2,0.4-0.3V40c-0.5,0.3-1,0.4-1.6,0.4
				c-0.8,0-1.5-0.3-2.1-0.9c-0.6-0.6-0.9-1.3-0.9-2.1c0-0.7,0.2-1.4,0.7-2c0.6-0.7,1.4-1.1,2.3-1.1C64.1,34.4,64.6,34.5,65.1,34.8z"
				/>
			<path class="st0" d="M68.3,35.3v5h-0.9v-5h-1.3v-0.8h3.6v0.8H68.3z"/>
			<path class="st0" d="M70.5,37.4c0-0.8,0.3-1.5,0.9-2.1c0.6-0.6,1.3-0.9,2.2-0.9c0.8,0,1.5,0.3,2.1,0.9s0.9,1.3,0.9,2.1
				c0,0.8-0.3,1.5-0.9,2.1c-0.6,0.6-1.3,0.9-2.2,0.9c-0.8,0-1.4-0.3-2-0.8C70.8,39,70.5,38.3,70.5,37.4z M71.4,37.4
				c0,0.6,0.2,1.2,0.7,1.6c0.4,0.4,0.9,0.6,1.5,0.6c0.6,0,1.1-0.2,1.6-0.6c0.4-0.4,0.6-1,0.6-1.6c0-0.6-0.2-1.1-0.6-1.6
				c-0.4-0.4-0.9-0.6-1.5-0.6s-1.1,0.2-1.5,0.6C71.6,36.2,71.4,36.8,71.4,37.4z"/>
			<path class="st0" d="M80.2,37.8l1.8,2.5h-1.1l-1.7-2.4H79v2.4h-0.9v-5.8h1c0.8,0,1.3,0.1,1.7,0.4c0.4,0.3,0.6,0.8,0.6,1.3
				c0,0.4-0.1,0.8-0.4,1.1C80.8,37.5,80.5,37.7,80.2,37.8z M79.1,37.2h0.3c0.8,0,1.2-0.3,1.2-1c0-0.6-0.4-0.9-1.2-0.9h-0.3V37.2z"/>
			<path class="st0" d="M84.2,34.5v5.8h-0.9v-5.8H84.2z"/>
			<path class="st0" d="M89.6,38.9h-2.5l-0.7,1.4h-0.9l2.9-6.2l2.8,6.2h-1L89.6,38.9z M89.2,38.1l-0.9-2l-0.9,2H89.2z"/>
			<path class="st0" d="M93.2,34.5v5h1.7v0.8h-2.6v-5.8H93.2z"/>
			<path class="st0" d="M99.2,40.3v-5.8h1.2c0.6,0,1.1,0.1,1.4,0.2c0.4,0.1,0.7,0.3,1,0.6c0.6,0.5,0.9,1.3,0.9,2.2
				c0,0.9-0.3,1.6-0.9,2.2c-0.3,0.3-0.6,0.5-1,0.6c-0.3,0.1-0.8,0.2-1.4,0.2L99.2,40.3L99.2,40.3z M100.1,39.5h0.4
				c0.4,0,0.7,0,1-0.1c0.3-0.1,0.5-0.2,0.7-0.4c0.4-0.4,0.7-0.9,0.7-1.5c0-0.6-0.2-1.2-0.6-1.6c-0.4-0.4-0.9-0.5-1.7-0.5h-0.4
				L100.1,39.5L100.1,39.5z"/>
			<path class="st0" d="M108.5,35.3h-2.3v1.4h2.3v0.8h-2.3v2h2.3v0.8h-3.2v-5.8h3.2V35.3z"/>
			<path class="st0" d="M2.6,42.2V48H1.8v-5.8H2.6z"/>
			<path class="st0" d="M4.1,48v-6.2l4.2,4.5v-4h0.9v6.2L5,44V48H4.1z"/>
			<path class="st0" d="M10.9,42.2l1.6,4l1.6-4h1l-2.6,6.3L10,42.2H10.9z"/>
			<path class="st0" d="M19.1,43h-2.3v1.4h2.3v0.8h-2.3v2h2.3V48h-3.2v-5.8h3.2L19.1,43L19.1,43z"/>
			<path class="st0" d="M23.6,43.1l-0.7,0.4c-0.1-0.2-0.3-0.4-0.4-0.5c-0.1-0.1-0.3-0.1-0.5-0.1c-0.2,0-0.5,0.1-0.6,0.2
				s-0.2,0.3-0.2,0.5c0,0.3,0.2,0.5,0.6,0.7l0.6,0.2c0.5,0.2,0.8,0.4,1,0.7c0.2,0.3,0.3,0.6,0.3,1c0,0.5-0.2,1-0.5,1.3
				c-0.4,0.3-0.8,0.5-1.3,0.5c-0.5,0-0.9-0.2-1.2-0.5c-0.3-0.3-0.5-0.7-0.6-1.3l0.9-0.2c0,0.3,0.1,0.6,0.2,0.7
				c0.2,0.2,0.5,0.4,0.8,0.4c0.3,0,0.5-0.1,0.7-0.3c0.2-0.2,0.3-0.4,0.3-0.7c0-0.1,0-0.2,0-0.3c0-0.1-0.1-0.2-0.1-0.3
				c-0.1-0.1-0.1-0.2-0.3-0.2s-0.2-0.1-0.4-0.2l-0.6-0.2c-0.8-0.3-1.2-0.8-1.2-1.5c0-0.4,0.2-0.8,0.5-1.1s0.8-0.5,1.2-0.5
				C22.7,42.1,23.2,42.4,23.6,43.1z"/>
			<path class="st0" d="M26.6,43v5h-0.9v-5h-1.3v-0.8h3.6V43H26.6z"/>
			<path class="st0" d="M29.6,42.2V48h-0.9v-5.8H29.6z"/>
			<path class="st0" d="M34.1,45h2.4v0.2c0,0.4,0,0.8-0.2,1.2c-0.1,0.3-0.3,0.6-0.5,0.9c-0.5,0.6-1.2,0.9-2.1,0.9
				c-0.8,0-1.5-0.3-2.1-0.9c-0.6-0.6-0.9-1.3-0.9-2.1c0-0.8,0.3-1.6,0.9-2.2s1.3-0.9,2.2-0.9c0.5,0,0.9,0.1,1.3,0.3
				c0.4,0.2,0.8,0.5,1.1,0.9l-0.6,0.6c-0.5-0.6-1.1-1-1.8-1c-0.6,0-1.1,0.2-1.5,0.6c-0.4,0.4-0.6,0.9-0.6,1.6c0,0.7,0.2,1.2,0.7,1.6
				c0.4,0.4,0.9,0.6,1.4,0.6c0.4,0,0.8-0.2,1.2-0.4c0.3-0.3,0.5-0.7,0.6-1h-1.5L34.1,45L34.1,45z"/>
			<path class="st0" d="M40.8,46.6h-2.5L37.6,48h-1l2.9-6.2l2.8,6.2h-0.9L40.8,46.6z M40.4,45.8l-0.9-2l-0.9,2H40.4z"/>
			<path class="st0" d="M47.2,42.5v1c-0.5-0.4-1-0.6-1.6-0.6c-0.6,0-1.1,0.2-1.5,0.7s-0.6,1-0.6,1.6c0,0.6,0.2,1.1,0.6,1.5
				s0.9,0.6,1.5,0.6c0.3,0,0.6,0,0.8-0.2c0.1,0,0.2-0.1,0.4-0.2c0.1-0.1,0.3-0.2,0.4-0.3v1.1c-0.5,0.3-1,0.4-1.6,0.4
				c-0.8,0-1.5-0.3-2.1-0.9c-0.6-0.6-0.9-1.3-0.9-2.1c0-0.7,0.2-1.4,0.7-2c0.6-0.7,1.4-1.1,2.3-1.1C46.2,42.1,46.7,42.2,47.2,42.5z"
				/>
			<path class="st0" d="M49.2,42.2V48h-0.9v-5.8H49.2z"/>
			<path class="st0" d="M50.3,45.1c0-0.8,0.3-1.5,0.9-2.1c0.6-0.6,1.3-0.9,2.2-0.9c0.8,0,1.5,0.3,2.1,0.9s0.9,1.3,0.9,2.1
				c0,0.8-0.3,1.5-0.9,2.1c-0.6,0.6-1.3,0.9-2.2,0.9c-0.8,0-1.4-0.3-2-0.8C50.7,46.8,50.3,46,50.3,45.1z M51.2,45.1
				c0,0.6,0.2,1.2,0.7,1.6c0.4,0.4,0.9,0.6,1.5,0.6c0.6,0,1.1-0.2,1.5-0.6c0.4-0.4,0.6-1,0.6-1.6c0-0.6-0.2-1.1-0.6-1.6
				c-0.4-0.4-0.9-0.6-1.5-0.6s-1.1,0.2-1.5,0.6C51.4,44,51.2,44.5,51.2,45.1z M54.7,40.6l-1.5,1l-0.4-0.3l1.2-1.2L54.7,40.6z"/>
			<path class="st0" d="M57.6,48v-6.2l4.2,4.5v-4h0.9v6.2L58.5,44V48H57.6z"/>
			<path class="st0" d="M70.9,42.5v1c-0.5-0.4-1-0.6-1.6-0.6c-0.6,0-1.1,0.2-1.5,0.7s-0.6,1-0.6,1.6c0,0.6,0.2,1.1,0.6,1.5
				s0.9,0.6,1.5,0.6c0.3,0,0.6,0,0.8-0.2c0.1,0,0.2-0.1,0.4-0.2c0.1-0.1,0.3-0.2,0.4-0.3v1.1c-0.5,0.3-1,0.4-1.6,0.4
				c-0.8,0-1.5-0.3-2.1-0.9c-0.6-0.6-0.9-1.3-0.9-2.1c0-0.7,0.2-1.4,0.7-2c0.6-0.7,1.4-1.1,2.3-1.1C69.9,42.1,70.4,42.2,70.9,42.5z"
				/>
			<path class="st0" d="M72.9,42.2V48H72v-5.8H72.9z"/>
			<path class="st0" d="M77.6,43h-2.3v1.4h2.3v0.8h-2.3v2h2.3V48h-3.2v-5.8h3.2V43z"/>
			<path class="st0" d="M78.8,48v-6.2l4.2,4.5v-4h0.9v6.2L79.6,44V48H78.8z"/>
			<path class="st0" d="M86.9,43v5h-0.9v-5h-1.3v-0.8h3.6V43H86.9z"/>
			<path class="st0" d="M91,40.6l-1.4,1l-0.4-0.3l1.2-1.2L91,40.6z M90,42.2V48h-0.9v-5.8H90z"/>
			<path class="st0" d="M94.3,43h-2v1.4h2v0.8h-2V48h-0.9v-5.8h2.9C94.3,42.2,94.3,43,94.3,43z"/>
			<path class="st0" d="M96.3,42.2V48h-0.9v-5.8H96.3z"/>
			<path class="st0" d="M102,42.5v1c-0.5-0.4-1-0.6-1.6-0.6c-0.6,0-1.1,0.2-1.5,0.7s-0.6,1-0.6,1.6c0,0.6,0.2,1.1,0.6,1.5
				s0.9,0.6,1.5,0.6c0.3,0,0.6,0,0.8-0.2c0.1,0,0.2-0.1,0.4-0.2c0.1-0.1,0.3-0.2,0.4-0.3v1.1c-0.5,0.3-1,0.4-1.6,0.4
				c-0.8,0-1.5-0.3-2.1-0.9c-0.6-0.6-0.9-1.3-0.9-2.1c0-0.7,0.2-1.4,0.7-2c0.6-0.7,1.4-1.1,2.3-1.1C101,42.1,101.5,42.2,102,42.5z"
				/>
			<path class="st0" d="M106.7,46.6h-2.5l-0.7,1.4h-0.9l2.9-6.2l2.8,6.2h-1L106.7,46.6z M106.4,45.8l-0.9-2l-0.9,2H106.4z"/>
		</g>
	</g>
</g>
</svg>
