<?xml version="1.0" encoding="utf-8"?>
<!-- Generator: Adobe Illustrator 25.0.0, SVG Export Plug-In . SVG Version: 6.00 Build 0)  -->
<svg version="1.1" id="Capa_1" xmlns="http://www.w3.org/2000/svg" xmlns:xlink="http://www.w3.org/1999/xlink" x="0px" y="0px"
	 viewBox="0 0 108.68 48.39" style="enable-background:new 0 0 108.68 48.39;" xml:space="preserve">
<style type="text/css">
	.st0{fill:#2C4122;}
</style>
<g>
	<path class="st0" d="M22.49,2.08v5.09C20,5.08,17.43,4.04,14.77,4.04c-2.93,0-5.4,1.05-7.4,3.16c-2.02,2.09-3.03,4.65-3.03,7.68
		c0,2.99,1.01,5.52,3.03,7.57c2.02,2.06,4.49,3.08,7.42,3.08c1.51,0,2.8-0.25,3.86-0.74c0.59-0.25,1.2-0.58,1.84-1
		c0.63-0.42,1.3-0.92,2-1.51v5.2c-2.46,1.4-5.05,2.1-7.75,2.1c-4.08,0-7.55-1.42-10.43-4.27C1.43,22.45,0,18.99,0,14.94
		c0-3.63,1.2-6.87,3.6-9.71C6.56,1.74,10.38,0,15.07,0C17.63,0,20.1,0.69,22.49,2.08z"/>
	<path class="st0" d="M42.12,4.78l-3.49,2.07c-0.65-1.13-1.27-1.87-1.87-2.22c-0.62-0.39-1.41-0.59-2.38-0.59
		c-1.19,0-2.19,0.34-2.97,1.02c-0.79,0.67-1.18,1.5-1.18,2.51c0,1.39,1.03,2.51,3.1,3.36l2.84,1.16c2.31,0.94,4.01,2.08,5.08,3.43
		c1.07,1.35,1.61,3,1.61,4.96c0,2.62-0.88,4.79-2.62,6.51c-1.76,1.72-3.95,2.59-6.56,2.59c-2.47,0-4.52-0.74-6.13-2.21
		c-1.59-1.47-2.58-3.54-2.97-6.19l4.36-0.96c0.2,1.67,0.54,2.83,1.03,3.47c0.89,1.23,2.18,1.85,3.88,1.85
		c1.34,0,2.46-0.45,3.34-1.35c0.89-0.9,1.33-2.04,1.33-3.41c0-0.55-0.08-1.06-0.23-1.52c-0.15-0.46-0.39-0.89-0.72-1.27
		c-0.33-0.39-0.75-0.75-1.26-1.09c-0.52-0.34-1.13-0.66-1.85-0.97l-2.75-1.14c-3.9-1.65-5.85-4.06-5.85-7.23
		c0-2.14,0.82-3.93,2.46-5.37C29.95,0.73,31.98,0,34.42,0C37.71,0,40.27,1.59,42.12,4.78z"/>
	<path class="st0" d="M50.07,0.55v28.51h-4.3V0.55H50.07z"/>
	<path class="st0" d="M74.8,2.08v5.09c-2.49-2.08-5.06-3.12-7.72-3.12c-2.93,0-5.4,1.05-7.4,3.16c-2.02,2.09-3.03,4.65-3.03,7.68
		c0,2.99,1.01,5.52,3.03,7.57c2.02,2.06,4.49,3.08,7.42,3.08c1.51,0,2.8-0.25,3.86-0.74c0.59-0.25,1.2-0.58,1.84-1
		c0.63-0.42,1.3-0.92,2-1.51v5.2c-2.46,1.4-5.05,2.1-7.75,2.1c-4.07,0-7.55-1.42-10.43-4.27c-2.87-2.87-4.3-6.33-4.3-10.38
		c0-3.63,1.2-6.87,3.6-9.71C58.86,1.74,62.68,0,67.37,0C69.93,0,72.41,0.69,74.8,2.08z"/>
	<path class="st0" d="M108.68,14.14H96.54c-0.78,0-1.41-0.63-1.41-1.41V6.17c0-2.98,2.49-5.57,5.8-5.57h6.35
		c0.78,0,1.41,0.63,1.41,1.4V14.14z"/>
	<path class="st0" d="M80.16,15.52H92.3c0.78,0,1.41,0.63,1.41,1.41v6.57c0,2.98-2.5,5.57-5.79,5.57h-6.35
		c-0.78,0-1.41-0.63-1.41-1.41V15.52z"/>
	<path class="st0" d="M93.71,0.59v12.14c0,0.78-0.63,1.41-1.41,1.41h-6.57c-2.98,0-5.57-2.49-5.57-5.8V2c0-0.78,0.63-1.41,1.41-1.41
		H93.71z"/>
	<path class="st0" d="M95.13,29.07V16.92c0-0.78,0.63-1.41,1.41-1.41h6.57c2.98,0,5.57,2.5,5.57,5.8v6.35
		c0,0.78-0.63,1.41-1.41,1.41H95.13z"/>
	<g>
		<g>
			<path class="st0" d="M6.07,34.79v1.04c-0.51-0.43-1.03-0.64-1.58-0.64c-0.6,0-1.1,0.22-1.51,0.65c-0.41,0.43-0.62,0.95-0.62,1.57
				c0,0.61,0.21,1.13,0.62,1.55c0.41,0.42,0.92,0.63,1.52,0.63c0.31,0,0.57-0.05,0.79-0.15c0.12-0.05,0.25-0.12,0.38-0.2
				c0.13-0.09,0.27-0.19,0.41-0.31v1.06c-0.5,0.29-1.03,0.43-1.59,0.43c-0.83,0-1.54-0.29-2.13-0.87c-0.59-0.59-0.88-1.29-0.88-2.12
				c0-0.74,0.25-1.4,0.74-1.99c0.6-0.71,1.39-1.07,2.34-1.07C5.08,34.36,5.58,34.5,6.07,34.79z"/>
			<path class="st0" d="M7.35,37.36c0-0.82,0.3-1.53,0.9-2.11c0.6-0.59,1.32-0.88,2.16-0.88c0.83,0,1.54,0.3,2.14,0.89
				c0.6,0.59,0.89,1.31,0.89,2.14c0,0.84-0.3,1.55-0.9,2.13c-0.6,0.59-1.33,0.88-2.18,0.88c-0.75,0-1.43-0.26-2.03-0.78
				C7.68,39.05,7.35,38.3,7.35,37.36z M8.24,37.37c0,0.64,0.22,1.17,0.65,1.59c0.43,0.41,0.93,0.62,1.49,0.62
				c0.61,0,1.13-0.21,1.55-0.63c0.42-0.43,0.63-0.95,0.63-1.56c0-0.62-0.21-1.14-0.62-1.56c-0.41-0.42-0.92-0.63-1.53-0.63
				c-0.61,0-1.12,0.21-1.54,0.63C8.45,36.24,8.24,36.76,8.24,37.37z"/>
			<path class="st0" d="M14.85,40.3l1.23-6.27l2,4.53l2.07-4.53l1.1,6.27h-0.9l-0.56-3.52l-1.73,3.79l-1.68-3.79l-0.63,3.52H14.85z"
				/>
			<path class="st0" d="M23.88,34.47v5.83H23v-5.83H23.88z"/>
			<path class="st0" d="M29.08,35.34l-0.71,0.42c-0.13-0.23-0.26-0.38-0.38-0.45c-0.13-0.08-0.29-0.12-0.49-0.12
				c-0.24,0-0.45,0.07-0.61,0.21c-0.16,0.14-0.24,0.31-0.24,0.51c0,0.28,0.21,0.51,0.63,0.69l0.58,0.24
				c0.47,0.19,0.82,0.43,1.04,0.7c0.22,0.28,0.33,0.61,0.33,1.01c0,0.54-0.18,0.98-0.54,1.33c-0.36,0.35-0.81,0.53-1.34,0.53
				c-0.51,0-0.92-0.15-1.25-0.45c-0.32-0.3-0.53-0.72-0.61-1.27l0.89-0.2c0.04,0.34,0.11,0.58,0.21,0.71
				c0.18,0.25,0.45,0.38,0.79,0.38c0.27,0,0.5-0.09,0.68-0.28c0.18-0.18,0.27-0.42,0.27-0.7c0-0.11-0.02-0.22-0.05-0.31
				c-0.03-0.09-0.08-0.18-0.15-0.26c-0.07-0.08-0.15-0.15-0.26-0.22c-0.11-0.07-0.23-0.14-0.38-0.2l-0.56-0.23
				c-0.8-0.34-1.2-0.83-1.2-1.48c0-0.44,0.17-0.8,0.5-1.1c0.33-0.3,0.75-0.45,1.25-0.45C28.17,34.36,28.7,34.69,29.08,35.34z"/>
			<path class="st0" d="M31.67,34.47v5.83h-0.88v-5.83H31.67z"/>
			<path class="st0" d="M33.28,37.36c0-0.82,0.3-1.53,0.9-2.11c0.6-0.59,1.32-0.88,2.16-0.88c0.83,0,1.54,0.3,2.14,0.89
				c0.6,0.59,0.89,1.31,0.89,2.14c0,0.84-0.3,1.55-0.9,2.13c-0.6,0.59-1.33,0.88-2.18,0.88c-0.75,0-1.43-0.26-2.03-0.78
				C33.61,39.05,33.28,38.3,33.28,37.36z M34.17,37.37c0,0.64,0.22,1.17,0.65,1.59c0.43,0.41,0.93,0.62,1.49,0.62
				c0.61,0,1.13-0.21,1.55-0.63c0.42-0.43,0.63-0.95,0.63-1.56c0-0.62-0.21-1.14-0.62-1.56c-0.41-0.42-0.92-0.63-1.53-0.63
				c-0.61,0-1.12,0.21-1.54,0.63C34.38,36.24,34.17,36.76,34.17,37.37z M37.67,32.91l-1.54,1.04l-0.42-0.35l1.21-1.22L37.67,32.91z"
				/>
			<path class="st0" d="M40.99,40.3v-6.23l4.25,4.45v-4.05h0.88v6.19l-4.25-4.44v4.08H40.99z"/>
			<path class="st0" d="M54.2,35.34l-0.71,0.42c-0.13-0.23-0.26-0.38-0.38-0.45c-0.13-0.08-0.29-0.12-0.49-0.12
				c-0.24,0-0.45,0.07-0.61,0.21c-0.16,0.14-0.24,0.31-0.24,0.51c0,0.28,0.21,0.51,0.63,0.69l0.58,0.24
				c0.47,0.19,0.82,0.43,1.04,0.7c0.22,0.28,0.33,0.61,0.33,1.01c0,0.54-0.18,0.98-0.54,1.33c-0.36,0.35-0.81,0.53-1.34,0.53
				c-0.51,0-0.92-0.15-1.25-0.45c-0.32-0.3-0.53-0.72-0.61-1.27l0.89-0.2c0.04,0.34,0.11,0.58,0.21,0.71
				c0.18,0.25,0.45,0.38,0.79,0.38c0.27,0,0.5-0.09,0.68-0.28c0.18-0.18,0.27-0.42,0.27-0.7c0-0.11-0.02-0.22-0.05-0.31
				c-0.03-0.09-0.08-0.18-0.15-0.26c-0.07-0.08-0.15-0.15-0.26-0.22c-0.11-0.07-0.23-0.14-0.38-0.2l-0.56-0.23
				c-0.8-0.34-1.2-0.83-1.2-1.48c0-0.44,0.17-0.8,0.5-1.1c0.33-0.3,0.75-0.45,1.25-0.45C53.3,34.36,53.83,34.69,54.2,35.34z"/>
			<path class="st0" d="M59.14,35.3H56.8v1.4h2.27v0.83H56.8v1.95h2.34v0.83h-3.22v-5.83h3.22V35.3z"/>
			<path class="st0" d="M65.1,34.79v1.04c-0.51-0.43-1.03-0.64-1.58-0.64c-0.6,0-1.1,0.22-1.51,0.65c-0.41,0.43-0.62,0.95-0.62,1.57
				c0,0.61,0.21,1.13,0.62,1.55c0.41,0.42,0.92,0.63,1.52,0.63c0.31,0,0.57-0.05,0.79-0.15c0.12-0.05,0.25-0.12,0.38-0.2
				c0.13-0.09,0.27-0.19,0.41-0.31v1.06c-0.5,0.29-1.03,0.43-1.59,0.43c-0.83,0-1.54-0.29-2.13-0.87c-0.59-0.59-0.88-1.29-0.88-2.12
				c0-0.74,0.25-1.4,0.74-1.99c0.6-0.71,1.39-1.07,2.35-1.07C64.11,34.36,64.62,34.5,65.1,34.79z"/>
			<path class="st0" d="M68.33,35.3v5h-0.88v-5h-1.34v-0.83h3.56v0.83H68.33z"/>
			<path class="st0" d="M70.47,37.36c0-0.82,0.3-1.53,0.9-2.11c0.6-0.59,1.32-0.88,2.16-0.88c0.83,0,1.54,0.3,2.14,0.89
				c0.6,0.59,0.9,1.31,0.9,2.14c0,0.84-0.3,1.55-0.9,2.13c-0.6,0.59-1.33,0.88-2.18,0.88c-0.75,0-1.43-0.26-2.03-0.78
				C70.8,39.05,70.47,38.3,70.47,37.36z M71.36,37.37c0,0.64,0.22,1.17,0.65,1.59c0.43,0.41,0.93,0.62,1.49,0.62
				c0.61,0,1.13-0.21,1.55-0.63c0.42-0.43,0.63-0.95,0.63-1.56c0-0.62-0.21-1.14-0.62-1.56c-0.41-0.42-0.92-0.63-1.53-0.63
				c-0.61,0-1.12,0.21-1.54,0.63C71.57,36.24,71.36,36.76,71.36,37.37z"/>
			<path class="st0" d="M80.15,37.82l1.81,2.48h-1.08l-1.67-2.39h-0.16v2.39h-0.88v-5.83h1.03c0.77,0,1.33,0.14,1.67,0.43
				c0.38,0.32,0.57,0.75,0.57,1.28c0,0.41-0.12,0.77-0.36,1.06C80.85,37.55,80.54,37.74,80.15,37.82z M79.06,37.15h0.28
				c0.83,0,1.25-0.32,1.25-0.96c0-0.6-0.41-0.89-1.22-0.89h-0.31V37.15z"/>
			<path class="st0" d="M84.22,34.47v5.83h-0.88v-5.83H84.22z"/>
			<path class="st0" d="M89.55,38.89h-2.5L86.4,40.3h-0.95l2.89-6.2l2.78,6.2h-0.96L89.55,38.89z M89.19,38.06l-0.86-1.98
				l-0.91,1.98H89.19z"/>
			<path class="st0" d="M93.23,34.47v5h1.71v0.83h-2.59v-5.83H93.23z"/>
			<path class="st0" d="M99.17,40.3v-5.83h1.22c0.59,0,1.05,0.06,1.39,0.17c0.36,0.11,0.7,0.31,0.99,0.58
				c0.6,0.55,0.9,1.27,0.9,2.16c0,0.9-0.31,1.62-0.94,2.17c-0.31,0.28-0.64,0.47-0.99,0.58c-0.32,0.11-0.78,0.16-1.37,0.16H99.17z
				 M100.05,39.48h0.4c0.4,0,0.72-0.04,0.99-0.12c0.26-0.09,0.5-0.23,0.71-0.42c0.43-0.4,0.65-0.91,0.65-1.54
				c0-0.64-0.21-1.16-0.64-1.56c-0.38-0.36-0.95-0.53-1.7-0.53h-0.4V39.48z"/>
			<path class="st0" d="M108.51,35.3h-2.34v1.4h2.27v0.83h-2.27v1.95h2.34v0.83h-3.22v-5.83h3.22V35.3z"/>
			<path class="st0" d="M2.64,42.21v5.83H1.76v-5.83H2.64z"/>
			<path class="st0" d="M4.08,48.04v-6.23l4.25,4.45v-4.05h0.88v6.19l-4.25-4.44v4.08H4.08z"/>
			<path class="st0" d="M10.94,42.21l1.61,4.04l1.64-4.04h0.96l-2.62,6.27l-2.56-6.27H10.94z"/>
			<path class="st0" d="M19.13,43.03H16.8v1.4h2.27v0.83H16.8v1.95h2.34v0.83h-3.22v-5.83h3.22V43.03z"/>
			<path class="st0" d="M23.63,43.07l-0.71,0.42c-0.13-0.23-0.26-0.38-0.38-0.45c-0.13-0.08-0.29-0.12-0.49-0.12
				c-0.24,0-0.45,0.07-0.61,0.21c-0.16,0.14-0.24,0.31-0.24,0.51c0,0.28,0.21,0.51,0.63,0.69l0.58,0.24
				c0.47,0.19,0.82,0.43,1.04,0.7c0.22,0.28,0.33,0.61,0.33,1.01c0,0.54-0.18,0.98-0.54,1.33c-0.36,0.35-0.81,0.53-1.34,0.53
				c-0.51,0-0.92-0.15-1.25-0.45c-0.32-0.3-0.53-0.72-0.61-1.27l0.89-0.2c0.04,0.34,0.11,0.58,0.21,0.71
				c0.18,0.25,0.45,0.38,0.79,0.38c0.27,0,0.5-0.09,0.68-0.28c0.18-0.18,0.27-0.42,0.27-0.7c0-0.11-0.02-0.22-0.05-0.31
				c-0.03-0.09-0.08-0.18-0.15-0.26c-0.07-0.08-0.15-0.15-0.26-0.22c-0.11-0.07-0.23-0.14-0.38-0.2l-0.56-0.23
				c-0.8-0.34-1.2-0.83-1.2-1.48c0-0.44,0.17-0.8,0.5-1.1c0.33-0.3,0.75-0.45,1.25-0.45C22.72,42.09,23.25,42.42,23.63,43.07z"/>
			<path class="st0" d="M26.59,43.03v5h-0.88v-5h-1.34v-0.83h3.56v0.83H26.59z"/>
			<path class="st0" d="M29.63,42.21v5.83h-0.88v-5.83H29.63z"/>
			<path class="st0" d="M34.07,45h2.41v0.19c0,0.44-0.05,0.83-0.15,1.16c-0.1,0.31-0.27,0.6-0.51,0.88
				c-0.54,0.61-1.23,0.91-2.07,0.91c-0.82,0-1.51-0.29-2.1-0.88c-0.58-0.59-0.87-1.3-0.87-2.13c0-0.85,0.3-1.56,0.89-2.15
				c0.59-0.59,1.31-0.89,2.16-0.89c0.46,0,0.88,0.09,1.28,0.28c0.38,0.19,0.75,0.49,1.11,0.9l-0.63,0.6
				c-0.48-0.64-1.06-0.96-1.75-0.96c-0.62,0-1.13,0.21-1.55,0.64c-0.42,0.42-0.63,0.94-0.63,1.57c0,0.65,0.23,1.18,0.7,1.6
				c0.44,0.39,0.91,0.59,1.42,0.59c0.43,0,0.82-0.15,1.17-0.44c0.34-0.29,0.54-0.65,0.58-1.05h-1.45V45z"/>
			<path class="st0" d="M40.79,46.62h-2.5l-0.65,1.42h-0.95l2.88-6.2l2.78,6.2H41.4L40.79,46.62z M40.43,45.8l-0.86-1.98l-0.91,1.98
				H40.43z"/>
			<path class="st0" d="M47.17,42.52v1.04c-0.51-0.43-1.03-0.64-1.58-0.64c-0.6,0-1.1,0.22-1.51,0.65
				c-0.41,0.43-0.62,0.95-0.62,1.57c0,0.61,0.21,1.13,0.62,1.55c0.41,0.42,0.92,0.63,1.52,0.63c0.31,0,0.57-0.05,0.79-0.15
				c0.12-0.05,0.25-0.12,0.38-0.2c0.13-0.09,0.27-0.19,0.41-0.31v1.06c-0.5,0.29-1.03,0.43-1.59,0.43c-0.83,0-1.54-0.29-2.13-0.87
				c-0.59-0.59-0.88-1.29-0.88-2.12c0-0.74,0.25-1.4,0.74-1.99c0.6-0.71,1.39-1.07,2.34-1.07C46.17,42.09,46.68,42.24,47.17,42.52z"
				/>
			<path class="st0" d="M49.2,42.21v5.83h-0.88v-5.83H49.2z"/>
			<path class="st0" d="M50.34,45.1c0-0.82,0.3-1.53,0.9-2.11c0.6-0.59,1.32-0.88,2.16-0.88c0.83,0,1.54,0.3,2.14,0.89
				c0.6,0.59,0.9,1.31,0.9,2.14c0,0.84-0.3,1.55-0.9,2.13c-0.6,0.59-1.33,0.88-2.18,0.88c-0.75,0-1.43-0.26-2.03-0.78
				C50.67,46.79,50.34,46.03,50.34,45.1z M51.23,45.11c0,0.64,0.22,1.17,0.65,1.59c0.43,0.41,0.93,0.62,1.49,0.62
				c0.61,0,1.13-0.21,1.55-0.63c0.42-0.43,0.63-0.95,0.63-1.56c0-0.62-0.21-1.14-0.62-1.56c-0.41-0.42-0.92-0.63-1.53-0.63
				c-0.61,0-1.12,0.21-1.54,0.63C51.44,43.98,51.23,44.49,51.23,45.11z M54.73,40.64l-1.54,1.04l-0.42-0.35l1.21-1.22L54.73,40.64z"
				/>
			<path class="st0" d="M57.58,48.04v-6.23l4.25,4.45v-4.05h0.88v6.19l-4.25-4.44v4.08H57.58z"/>
			<path class="st0" d="M70.89,42.52v1.04c-0.51-0.43-1.03-0.64-1.58-0.64c-0.6,0-1.1,0.22-1.51,0.65
				c-0.41,0.43-0.62,0.95-0.62,1.57c0,0.61,0.21,1.13,0.62,1.55c0.41,0.42,0.92,0.63,1.52,0.63c0.31,0,0.57-0.05,0.79-0.15
				c0.12-0.05,0.25-0.12,0.38-0.2c0.13-0.09,0.27-0.19,0.41-0.31v1.06c-0.5,0.29-1.03,0.43-1.59,0.43c-0.83,0-1.54-0.29-2.13-0.87
				c-0.59-0.59-0.88-1.29-0.88-2.12c0-0.74,0.25-1.4,0.74-1.99c0.6-0.71,1.39-1.07,2.35-1.07C69.89,42.09,70.4,42.24,70.89,42.52z"
				/>
			<path class="st0" d="M72.91,42.21v5.83h-0.88v-5.83H72.91z"/>
			<path class="st0" d="M77.57,43.03h-2.34v1.4h2.27v0.83h-2.27v1.95h2.34v0.83h-3.22v-5.83h3.22V43.03z"/>
			<path class="st0" d="M78.76,48.04v-6.23l4.25,4.45v-4.05h0.88v6.19l-4.25-4.44v4.08H78.76z"/>
			<path class="st0" d="M86.94,43.03v5h-0.88v-5h-1.34v-0.83h3.56v0.83H86.94z"/>
			<path class="st0" d="M90.96,40.64l-1.45,1.04l-0.42-0.35l1.15-1.22L90.96,40.64z M89.98,42.21v5.83H89.1v-5.83H89.98z"/>
			<path class="st0" d="M94.33,43.03H92.3v1.4h1.96v0.83H92.3v2.78h-0.88v-5.83h2.91V43.03z"/>
			<path class="st0" d="M96.27,42.21v5.83h-0.88v-5.83H96.27z"/>
			<path class="st0" d="M102.02,42.52v1.04c-0.51-0.43-1.03-0.64-1.58-0.64c-0.6,0-1.1,0.22-1.51,0.65
				c-0.41,0.43-0.62,0.95-0.62,1.57c0,0.61,0.21,1.13,0.62,1.55c0.41,0.42,0.92,0.63,1.52,0.63c0.31,0,0.57-0.05,0.79-0.15
				c0.12-0.05,0.25-0.12,0.38-0.2c0.13-0.09,0.27-0.19,0.41-0.31v1.06c-0.5,0.29-1.03,0.43-1.59,0.43c-0.83,0-1.54-0.29-2.13-0.87
				c-0.59-0.59-0.88-1.29-0.88-2.12c0-0.74,0.25-1.4,0.74-1.99c0.6-0.71,1.39-1.07,2.35-1.07
				C101.02,42.09,101.53,42.24,102.02,42.52z"/>
			<path class="st0" d="M106.73,46.62h-2.5l-0.65,1.42h-0.95l2.89-6.2l2.78,6.2h-0.96L106.73,46.62z M106.37,45.8l-0.86-1.98
				l-0.91,1.98H106.37z"/>
		</g>
	</g>
</g>
</svg>
