<?xml version="1.0" encoding="utf-8"?>
<!-- Generator: Adobe Illustrator 25.0.0, SVG Export Plug-In . SVG Version: 6.00 Build 0)  -->
<svg version="1.1" id="Capa_1" xmlns="http://www.w3.org/2000/svg" xmlns:xlink="http://www.w3.org/1999/xlink" x="0px" y="0px"
	 viewBox="0 0 176.51 48.48" style="enable-background:new 0 0 176.51 48.48;" xml:space="preserve">
<style type="text/css">
	.st0{fill:#2C4122;}
</style>
<g>
	<path class="st0" d="M39.81,38.53c0,0.86-0.54,1.48-1.32,1.48c-0.61,0-0.77-0.46-0.77-1.03v-3.31h-1.69v3.6
		c0,1.52,0.69,2.31,1.97,2.31c0.94,0,1.62-0.67,1.86-1.19v1.03h1.62v-5.74h-1.67V38.53z"/>
	<polygon class="st0" points="0,0 0,10.99 2.2,10.99 2.2,6.62 5.34,6.62 5.34,4.65 2.2,4.65 2.2,2.2 5.39,2.2 5.39,0 	"/>
	<polygon class="st0" points="8.33,0 8.33,2.2 46.21,2.2 46.21,46.27 2.2,46.27 2.21,13.8 0,13.8 0,48.48 48.47,48.48 48.47,48.48 
		48.48,48.48 48.48,0 	"/>
	<path class="st0" d="M9.97,40.03c-0.78,0-1.41-0.65-1.41-1.45c0-0.8,0.63-1.45,1.41-1.45c0.78,0,1.41,0.65,1.41,1.45
		C11.38,39.38,10.75,40.03,9.97,40.03 M13.06,33.13h-1.67v2.76c0,0.32,0.04,0.47,0.04,0.47l-0.02,0.05
		c-0.32-0.45-1.07-0.74-1.82-0.74C8.2,35.67,7,36.67,7,38.57c0,1.89,1.05,2.98,2.63,2.98c1.27,0,1.71-0.68,1.88-1.22l0.03,0
		c0,0-0.04,0.4-0.03,0.59l0.01,0.52h1.56L13.06,33.13z"/>
	<path class="st0" d="M38.41,12.01c-0.23-0.01-0.89-0.14-0.84-0.91c0.04-0.58,0.76-1.01,2.18-0.74
		C39.76,11.27,39.34,12.03,38.41,12.01 M38.75,7.01c-1.03,0-1.74,0.23-2.07,0.38v1.53c0.38-0.24,1.09-0.49,1.82-0.49
		c0.86,0,1.24,0.31,1.24,1.11v0.04c-1.78-0.48-3.52,0.29-3.52,1.74c0,1.17,0.89,1.73,1.76,1.73c1.07,0,1.69-0.57,1.88-1.22l0,1.06
		h1.59V9.29C41.45,7.86,40.55,7.01,38.75,7.01"/>
	<polygon class="st0" points="57.82,11.31 57.82,12.85 59.98,12.85 59.98,14 57.82,14 57.82,16.62 56.44,16.62 56.44,10.15 
		60.38,10.15 60.38,11.31 	"/>
	<path class="st0" d="M63.9,14.67c-1-0.16-1.43,0.15-1.43,0.58c0,0.29,0.2,0.48,0.51,0.48C63.51,15.72,63.9,15.25,63.9,14.67
		 M61.55,12.31C61.8,12.19,62.4,12,63.2,12c1.38,0,2.07,0.67,2.07,1.79v2.83h-1.21l-0.02-0.41c-0.01-0.19,0.02-0.31,0.02-0.31h-0.02
		c-0.12,0.27-0.57,0.85-1.39,0.85c-0.77,0-1.43-0.45-1.43-1.37c0-1.1,1.12-1.64,2.73-1.41v-0.11c0-0.54-0.37-0.74-0.96-0.74
		c-0.56,0-1.13,0.2-1.43,0.39V12.31z"/>
	<path class="st0" d="M69.16,15.57c0.54,0,1.03-0.25,1.2-0.37v1.21c-0.18,0.09-0.65,0.33-1.38,0.33c-1.44,0-2.39-1.01-2.39-2.37
		c0-1.37,0.95-2.37,2.39-2.37c0.72,0,1.17,0.23,1.35,0.32v1.22c-0.25-0.18-0.7-0.37-1.17-0.37c-0.71,0-1.21,0.47-1.21,1.2
		C67.95,15.1,68.43,15.57,69.16,15.57"/>
	<path class="st0" d="M74.86,16.62l-0.04-0.51c-0.01-0.16,0.02-0.27,0.04-0.31h-0.02c-0.19,0.41-0.78,0.95-1.53,0.95
		c-1.02,0-1.56-0.62-1.56-1.81v-2.81h1.35v2.59c0,0.45,0.13,0.81,0.61,0.81c0.61,0,1.03-0.49,1.03-1.16v-2.24h1.34v4.49H74.86z"/>
	<path class="st0" d="M77.88,10.15h1.34v4.89c0,0.41,0.18,0.56,0.45,0.56c0.18,0,0.37-0.05,0.45-0.09v1.1
		c-0.12,0.06-0.43,0.14-0.85,0.14c-0.76,0-1.38-0.39-1.38-1.41V10.15z"/>
	<path class="st0" d="M81.42,12.13v-1.35h1.3v1.35h1.2v1.05h-1.2v1.81c0,0.48,0.28,0.64,0.57,0.64c0.28,0,0.57-0.09,0.77-0.19v1.11
		c-0.2,0.1-0.61,0.21-1.14,0.21c-0.71,0-1.4-0.33-1.5-1.28c-0.01-0.14-0.03-0.3-0.03-0.46v-1.83h-0.62v-1.05H81.42z"/>
	<path class="st0" d="M87.88,14.67c-1.01-0.16-1.43,0.15-1.43,0.58c0,0.29,0.2,0.48,0.51,0.48C87.48,15.72,87.88,15.25,87.88,14.67
		 M85.53,12.31c0.25-0.12,0.85-0.3,1.64-0.3c1.38,0,2.07,0.67,2.07,1.79v2.83h-1.21L88,16.21c-0.01-0.19,0.02-0.31,0.02-0.31H88
		c-0.12,0.27-0.57,0.85-1.39,0.85c-0.77,0-1.43-0.45-1.43-1.37c0-1.1,1.11-1.64,2.73-1.41v-0.11c0-0.54-0.37-0.74-0.96-0.74
		c-0.57,0-1.13,0.2-1.43,0.39V12.31z"/>
	<path class="st0" d="M91.83,14.37c0,0.74,0.45,1.24,1.07,1.24c0.54,0,1.08-0.41,1.08-1.24c0-0.83-0.54-1.24-1.08-1.24
		C92.28,13.13,91.83,13.63,91.83,14.37 M95.36,16.62h-1.22l-0.03-0.41c-0.01-0.18,0.02-0.29,0.02-0.29h-0.02
		c-0.21,0.45-0.8,0.83-1.46,0.83c-1.16,0-2.09-0.9-2.09-2.37c0-1.48,0.93-2.37,2.06-2.37c0.66,0,1.17,0.3,1.41,0.66h0.02
		c0,0-0.03-0.12-0.03-0.37v-2.14h1.34V16.62z"/>
	<path class="st0" d="M100.96,14.37c0,0.74,0.45,1.24,1.07,1.24c0.54,0,1.08-0.41,1.08-1.24c0-0.83-0.54-1.24-1.08-1.24
		C101.41,13.13,100.96,13.63,100.96,14.37 M104.49,16.62h-1.22l-0.03-0.41c-0.01-0.18,0.02-0.29,0.02-0.29h-0.02
		c-0.21,0.45-0.8,0.83-1.46,0.83c-1.16,0-2.09-0.9-2.09-2.37c0-1.48,0.93-2.37,2.06-2.37c0.66,0,1.17,0.3,1.41,0.66h0.02
		c0,0-0.03-0.12-0.03-0.37v-2.14h1.34V16.62z"/>
	<path class="st0" d="M108.23,13.06c-0.54,0-0.84,0.41-0.88,0.9h1.7C109.07,13.48,108.78,13.06,108.23,13.06 M110.33,14.11
		c0,0.24-0.03,0.46-0.04,0.55h-2.95c0.06,0.61,0.52,0.96,1.25,0.96c0.64,0,1.3-0.19,1.55-0.33v1.14c-0.28,0.14-0.88,0.32-1.68,0.32
		c-1.54,0-2.51-1-2.51-2.37c0-1.36,1-2.37,2.28-2.37C109.62,12,110.33,12.99,110.33,14.11"/>
	<path class="st0" d="M117.93,14.51c-0.3-0.67-0.58-1.36-0.78-1.92c-0.19,0.45-0.53,1.31-0.8,1.92H117.93z M117.11,10.05h0.05
		l3.15,6.57h-1.45l-0.52-1.14h-2.41l-0.5,1.14h-1.45L117.11,10.05z"/>
	<path class="st0" d="M121.41,12.13h1.22l0.03,0.44c0,0.13,0,0.24,0.01,0.3c0.28-0.48,0.75-0.86,1.33-0.86
		c0.15,0,0.27,0.02,0.29,0.03v1.31c-0.02-0.01-0.12-0.05-0.3-0.05c-0.68,0-1.24,0.6-1.24,1.42v1.91h-1.34V12.13z"/>
	<path class="st0" d="M128.68,14.37c0-0.83-0.54-1.24-1.08-1.24c-0.62,0-1.07,0.51-1.07,1.24c0,0.75,0.45,1.24,1.07,1.24
		C128.14,15.62,128.68,15.2,128.68,14.37 M130.07,18.6h-1.34v-2.17c0-0.25,0.03-0.38,0.03-0.38h-0.02
		c-0.24,0.38-0.76,0.69-1.41,0.69c-1.12,0-2.06-0.89-2.06-2.37c0-1.47,0.93-2.37,2.09-2.37c0.66,0,1.25,0.37,1.46,0.81h0.02
		c0.01,0-0.03-0.13-0.02-0.31l0.03-0.38h1.22V18.6z"/>
	<path class="st0" d="M134.9,16.62l-0.04-0.51c-0.01-0.16,0.02-0.27,0.04-0.31h-0.02c-0.19,0.41-0.78,0.95-1.53,0.95
		c-1.01,0-1.56-0.62-1.56-1.81v-2.81h1.35v2.59c0,0.45,0.13,0.81,0.61,0.81c0.61,0,1.03-0.49,1.03-1.16v-2.24h1.34v4.49H134.9z"/>
	<path class="st0" d="M139.29,16.62h-1.35v-4.49h1.35V16.62z M138.61,10.11c0.45,0,0.75,0.28,0.75,0.73c0,0.43-0.3,0.72-0.75,0.72
		c-0.46,0-0.74-0.29-0.74-0.72C137.87,10.39,138.15,10.11,138.61,10.11"/>
	<path class="st0" d="M141.16,12.13v-1.35h1.3v1.35h1.19v1.05h-1.19v1.81c0,0.48,0.28,0.64,0.57,0.64c0.28,0,0.57-0.09,0.77-0.19
		v1.11c-0.2,0.1-0.61,0.21-1.14,0.21c-0.71,0-1.4-0.33-1.5-1.28c-0.01-0.14-0.03-0.3-0.03-0.46v-1.83h-0.62v-1.05H141.16z"/>
	<path class="st0" d="M147.03,13.06c-0.54,0-0.84,0.41-0.88,0.9h1.7C147.87,13.48,147.58,13.06,147.03,13.06 M149.13,14.11
		c0,0.24-0.03,0.46-0.04,0.55h-2.95c0.05,0.61,0.52,0.96,1.25,0.96c0.64,0,1.3-0.19,1.55-0.33v1.14c-0.28,0.14-0.88,0.32-1.68,0.32
		c-1.55,0-2.52-1-2.52-2.37c0-1.36,1-2.37,2.29-2.37C148.42,12,149.13,12.99,149.13,14.11"/>
	<path class="st0" d="M152.95,15.57c0.54,0,1.02-0.25,1.2-0.37v1.21c-0.18,0.09-0.65,0.33-1.38,0.33c-1.44,0-2.39-1.01-2.39-2.37
		c0-1.37,0.95-2.37,2.39-2.37c0.72,0,1.17,0.23,1.35,0.32v1.22c-0.25-0.18-0.7-0.37-1.17-0.37c-0.71,0-1.21,0.47-1.21,1.2
		C151.74,15.1,152.22,15.57,152.95,15.57"/>
	<path class="st0" d="M155.87,12.13v-1.35h1.3v1.35h1.19v1.05h-1.19v1.81c0,0.48,0.28,0.64,0.57,0.64c0.28,0,0.56-0.09,0.76-0.19
		v1.11c-0.2,0.1-0.61,0.21-1.14,0.21c-0.71,0-1.4-0.33-1.5-1.28c-0.01-0.14-0.03-0.3-0.03-0.46v-1.83h-0.62v-1.05H155.87z"/>
	<path class="st0" d="M162.85,16.62l-0.04-0.51c-0.01-0.16,0.02-0.27,0.04-0.31h-0.02c-0.19,0.41-0.78,0.95-1.53,0.95
		c-1.02,0-1.56-0.62-1.56-1.81v-2.81h1.35v2.59c0,0.45,0.12,0.81,0.61,0.81c0.61,0,1.04-0.49,1.04-1.16v-2.24h1.34v4.49H162.85z"/>
	<path class="st0" d="M165.86,12.13h1.22l0.03,0.44c0,0.13,0,0.24,0.01,0.3c0.28-0.48,0.74-0.86,1.33-0.86
		c0.14,0,0.27,0.02,0.29,0.03v1.31c-0.02-0.01-0.12-0.05-0.3-0.05c-0.68,0-1.24,0.6-1.24,1.42v1.91h-1.34V12.13z"/>
	<path class="st0" d="M172.38,14.67c-1.01-0.16-1.43,0.15-1.43,0.58c0,0.29,0.2,0.48,0.51,0.48
		C171.98,15.72,172.38,15.25,172.38,14.67 M170.03,12.31c0.25-0.12,0.85-0.3,1.64-0.3c1.38,0,2.08,0.67,2.08,1.79v2.83h-1.21
		l-0.03-0.41c-0.01-0.19,0.02-0.31,0.02-0.31h-0.02c-0.12,0.27-0.57,0.85-1.39,0.85c-0.77,0-1.43-0.45-1.43-1.37
		c0-1.1,1.12-1.64,2.73-1.41v-0.11c0-0.54-0.37-0.74-0.96-0.74c-0.57,0-1.13,0.2-1.43,0.39V12.31z"/>
	<polygon class="st0" points="175.76,17.97 174.78,17.97 175.31,16.1 176.51,16.1 	"/>
	<path class="st0" d="M57.82,22.4v4.15h0.69c1.38,0,2.2-0.9,2.2-2.08c0-1.17-0.82-2.07-2.22-2.07H57.82z M56.44,27.71v-6.47h2.07
		c2.2,0,3.59,1.34,3.59,3.23c0,1.9-1.38,3.23-3.58,3.23H56.44z"/>
	<path class="st0" d="M64.92,27.71h-1.35v-4.49h1.35V27.71z M64.25,21.21c0.45,0,0.75,0.28,0.75,0.73c0,0.43-0.29,0.72-0.75,0.72
		c-0.46,0-0.74-0.29-0.74-0.72C63.5,21.48,63.79,21.21,64.25,21.21"/>
	<path class="st0" d="M67.86,25.92c-0.84-0.23-1.43-0.58-1.43-1.46c0-0.84,0.67-1.38,1.71-1.38c0.65,0,1.19,0.16,1.46,0.28v1.15
		c-0.29-0.15-0.74-0.29-1.14-0.33c-0.14-0.01-0.29-0.01-0.41,0.02c-0.19,0.04-0.38,0.13-0.38,0.32c0,0.23,0.22,0.34,0.7,0.49
		c1.03,0.29,1.51,0.65,1.51,1.45c0,0.86-0.71,1.37-1.85,1.37c-0.69,0-1.2-0.15-1.53-0.29v-1.18c0.42,0.22,1.07,0.41,1.51,0.41
		c0.33,0,0.64-0.09,0.64-0.36C68.64,26.17,68.37,26.07,67.86,25.92"/>
	<path class="st0" d="M73.25,24.15c-0.54,0-0.84,0.41-0.88,0.9h1.7C74.09,24.56,73.8,24.15,73.25,24.15 M75.35,25.2
		c0,0.24-0.03,0.46-0.04,0.55h-2.95c0.05,0.61,0.52,0.96,1.25,0.96c0.64,0,1.3-0.19,1.55-0.33v1.14c-0.28,0.14-0.88,0.32-1.68,0.32
		c-1.55,0-2.52-1-2.52-2.37c0-1.37,1-2.37,2.28-2.37C74.64,23.09,75.35,24.08,75.35,25.2"/>
	<path class="st0" d="M79.95,21.55c0.35,0,0.65-0.15,0.83-0.34v0.99c-0.12,0.17-0.46,0.35-0.85,0.35c-0.5,0-0.93-0.31-1.4-0.31
		c-0.37,0-0.65,0.16-0.84,0.35v-1c0.13-0.17,0.46-0.34,0.86-0.34C79.05,21.25,79.49,21.55,79.95,21.55 M78.22,23.22l0.04,0.51
		c0.01,0.16-0.03,0.27-0.04,0.31h0.02c0.19-0.41,0.78-0.95,1.55-0.95c1.01,0,1.56,0.62,1.56,1.81v2.81H80v-2.59
		c0-0.44-0.12-0.81-0.61-0.81c-0.63,0-1.05,0.49-1.05,1.16v2.24h-1.35v-4.49H78.22z"/>
	<path class="st0" d="M86.24,25.47c0-0.75-0.49-1.24-1.13-1.24c-0.64,0-1.12,0.49-1.12,1.24c0,0.74,0.48,1.24,1.12,1.24
		C85.75,26.7,86.24,26.21,86.24,25.47 M87.51,25.47c0,1.36-1.02,2.37-2.4,2.37c-1.38,0-2.39-1.01-2.39-2.37c0-1.37,1-2.37,2.39-2.37
		C86.5,23.09,87.51,24.1,87.51,25.47"/>
	<path class="st0" d="M91.31,28.53c0.08,0.04,0.28,0.09,0.53,0.09c0.59,0,0.9-0.4,1.14-0.91l-1.85-4.49h1.47l0.52,1.56
		c0.19,0.55,0.38,1.11,0.53,1.67c0.12-0.25,0.42-1.34,0.54-1.67l0.52-1.56h1.46l-1.74,4.46c-0.51,1.33-1.19,1.99-2.13,2.1
		c-0.21,0.03-0.4,0.03-0.57,0.01c-0.18-0.02-0.35-0.04-0.42-0.08V28.53z"/>
	<path class="st0" d="M105.56,25.36c0,1.51-1,2.48-2.7,2.48c-1.7,0-2.71-0.97-2.71-2.48v-4.12h1.38v3.98c0,0.84,0.48,1.35,1.32,1.35
		c0.85,0,1.32-0.5,1.32-1.35v-3.98h1.38V25.36z"/>
	<path class="st0" d="M107.28,23.22h1.22l0.03,0.44c0,0.13,0,0.24,0.01,0.3c0.28-0.49,0.74-0.86,1.33-0.86
		c0.14,0,0.27,0.02,0.29,0.03v1.31c-0.02-0.01-0.13-0.05-0.3-0.05c-0.68,0-1.24,0.6-1.24,1.42v1.91h-1.34V23.22z"/>
	<path class="st0" d="M112.86,25.47c0,0.82,0.54,1.24,1.09,1.24c0.62,0,1.07-0.5,1.07-1.24c0-0.75-0.45-1.24-1.07-1.24
		C113.4,24.23,112.86,24.64,112.86,25.47 M111.47,21.24h1.35v2.14c0,0.25-0.03,0.37-0.03,0.37h0.02c0.23-0.35,0.75-0.66,1.4-0.66
		c1.13,0,2.07,0.89,2.07,2.37c0,1.47-0.93,2.37-2.1,2.37c-0.67,0-1.26-0.39-1.47-0.84h-0.02c0,0,0.04,0.12,0.02,0.3l-0.03,0.41
		h-1.22V21.24z"/>
	<path class="st0" d="M120.07,25.76c-1.01-0.16-1.43,0.15-1.43,0.57c0,0.29,0.2,0.48,0.51,0.48
		C119.68,26.81,120.07,26.33,120.07,25.76 M117.72,23.4c0.25-0.12,0.85-0.31,1.64-0.31c1.38,0,2.07,0.66,2.07,1.79v2.83h-1.21
		l-0.03-0.41c-0.01-0.19,0.02-0.31,0.02-0.31h-0.02c-0.12,0.27-0.57,0.85-1.39,0.85c-0.77,0-1.43-0.45-1.43-1.37
		c0-1.09,1.11-1.63,2.73-1.41v-0.11c0-0.54-0.37-0.74-0.96-0.74c-0.57,0-1.13,0.2-1.43,0.38V23.4z"/>
	<path class="st0" d="M124.33,23.22l0.04,0.51c0.01,0.16-0.03,0.27-0.04,0.31h0.02c0.19-0.41,0.78-0.95,1.55-0.95
		c1.02,0,1.56,0.62,1.56,1.81v2.81h-1.35v-2.59c0-0.44-0.12-0.81-0.61-0.81c-0.63,0-1.05,0.49-1.05,1.16v2.24h-1.35v-4.49H124.33z"
		/>
	<path class="st0" d="M130.53,27.71h-1.35v-4.49h1.35V27.71z M129.85,21.21c0.45,0,0.75,0.28,0.75,0.73c0,0.43-0.3,0.72-0.75,0.72
		c-0.46,0-0.75-0.29-0.75-0.72C129.11,21.48,129.39,21.21,129.85,21.21"/>
	<path class="st0" d="M133.46,25.92c-0.84-0.23-1.43-0.58-1.43-1.46c0-0.84,0.66-1.38,1.71-1.38c0.65,0,1.19,0.16,1.46,0.28v1.15
		c-0.29-0.15-0.74-0.29-1.14-0.33c-0.15-0.01-0.29-0.01-0.41,0.02c-0.19,0.04-0.38,0.13-0.38,0.32c0,0.23,0.22,0.34,0.7,0.49
		c1.02,0.29,1.51,0.65,1.51,1.45c0,0.86-0.71,1.37-1.85,1.37c-0.68,0-1.2-0.15-1.53-0.29v-1.18c0.42,0.22,1.07,0.41,1.51,0.41
		c0.33,0,0.64-0.09,0.64-0.36C134.25,26.17,133.97,26.07,133.46,25.92"/>
	<path class="st0" d="M138.16,23.22l0.04,0.51c0.01,0.16-0.03,0.27-0.04,0.31h0.02c0.19-0.47,0.69-0.84,1.28-0.91
		c0.14-0.03,0.3-0.03,0.44-0.01c0.51,0.07,0.92,0.35,1.1,0.87c0.34-0.52,0.88-0.9,1.5-0.9c1,0,1.56,0.61,1.56,1.81v2.81h-1.35V25.1
		c0-0.44-0.15-0.78-0.58-0.78c-0.77,0-0.96,0.7-0.96,1.43v1.96h-1.34v-2.62c0-0.42-0.13-0.77-0.58-0.77c-0.75,0-0.97,0.69-0.97,1.43
		v1.96h-1.35v-4.49H138.16z"/>
	<path class="st0" d="M148.95,25.47c0-0.75-0.5-1.24-1.13-1.24c-0.64,0-1.12,0.49-1.12,1.24c0,0.74,0.49,1.24,1.12,1.24
		C148.45,26.7,148.95,26.21,148.95,25.47 M150.21,25.47c0,1.36-1.02,2.37-2.4,2.37c-1.38,0-2.39-1.01-2.39-2.37
		c0-1.37,1-2.37,2.39-2.37C149.2,23.09,150.21,24.1,150.21,25.47"/>
	<path class="st0" d="M60.38,36.49c0,1.21-0.75,1.94-2.01,1.94c-1.25,0-2-0.72-2-1.94v-3.51h0.57v3.48c0,0.9,0.54,1.44,1.44,1.44
		s1.45-0.54,1.45-1.44v-3.48h0.57V36.49z"/>
	<path class="st0" d="M63.08,33.45v4.41h0.95c1.26,0,2.22-0.86,2.22-2.21c0-1.35-0.97-2.2-2.26-2.2H63.08z M62.51,38.33v-5.36h1.48
		c1.6,0,2.83,1.03,2.83,2.68c0,1.65-1.21,2.68-2.8,2.68H62.51z"/>
	<polygon class="st0" points="68.67,38.33 68.67,32.97 71.9,32.97 71.9,33.45 69.23,33.45 69.23,35.38 71.49,35.38 71.49,35.86 
		69.23,35.86 69.23,37.86 72.01,37.86 72.01,38.33 	"/>
	<polygon class="st0" points="73.83,38.33 73.83,32.97 74.4,32.97 74.4,37.86 76.76,37.86 76.76,38.33 	"/>
	<path class="st0" d="M81.2,36.57c-0.39-0.88-0.72-1.66-1.06-2.5c-0.34,0.84-0.68,1.62-1.07,2.5H81.2z M80.13,32.88h0.02l2.44,5.45
		h-0.6l-0.57-1.3h-2.55l-0.56,1.3h-0.6L80.13,32.88z"/>
	<path class="st0" d="M84.68,33.45v2.23h1.15c0.78,0,1.24-0.42,1.24-1.12c0-0.69-0.48-1.12-1.27-1.12H84.68z M85.81,32.97
		c1.13,0,1.82,0.6,1.82,1.59c0,0.81-0.5,1.34-1.18,1.51l1.26,2.26h-0.63l-1.18-2.18h-1.22v2.18h-0.57v-5.36H85.81z"/>
</g>
</svg>
